<?xml version="1.0" encoding="utf-8"?>
<!-- Generator: Adobe Illustrator 19.2.0, SVG Export Plug-In . SVG Version: 6.00 Build 0)  -->
<!DOCTYPE svg PUBLIC "-//W3C//DTD SVG 1.1//EN" "http://www.w3.org/Graphics/SVG/1.1/DTD/svg11.dtd">
<svg version="1.1" id="Layer_1" xmlns="http://www.w3.org/2000/svg" xmlns:xlink="http://www.w3.org/1999/xlink" x="0px" y="0px"
	 viewBox="0 0 37.6 37.6" enable-background="new 0 0 37.6 37.6" xml:space="preserve">
<path fill="#FFFFFF" d="M37.6,18.6C37.5,8.2,29-0.1,18.6,0S-0.1,8.6,0,19s8.6,18.7,19,18.6S37.7,29,37.6,18.6z M11.3,23.2
	c-0.6,0.6-1.5,0.6-2.1,0c-0.3-0.3-0.4-0.7-0.5-1.1s0.1-0.8,0.4-1.1l8.5-8.7c0.6-0.6,1.5-0.6,2.1,0l8.7,8.5c0.6,0.6,0.6,1.5,0,2.1
	c-0.6,0.6-1.5,0.6-2.1,0l-7.6-7.4L11.3,23.2z"/>
</svg>
