<?xml version="1.0" encoding="utf-8"?>
<!-- Generator: Adobe Illustrator 19.0.0, SVG Export Plug-In . SVG Version: 6.00 Build 0)  -->
<svg version="1.1" id="Layer_1" xmlns="http://www.w3.org/2000/svg" xmlns:xlink="http://www.w3.org/1999/xlink" x="0px" y="0px"
	 viewBox="0 0 50 50" enable-background="new 0 0 50 50" xml:space="preserve">
<g>
	<g>
		<path fill="#FFFFFF" d="M29.091,48.066H14.707c-0.846,0-1.579-0.451-1.918-1.241c-0.338-0.733-0.226-1.636,0.338-2.256
			l2.369-2.708V5.703c0-2.538,2.087-4.569,4.569-4.569h9.025c2.538,0,4.569,2.087,4.569,4.569v37.738
			C33.66,46.035,31.629,48.066,29.091,48.066z M16.399,45.189h12.692c0.959,0,1.749-0.79,1.749-1.749V5.703
			c0-0.959-0.79-1.749-1.749-1.749h-9.025c-0.959,0-1.749,0.79-1.749,1.749v37.23L16.399,45.189z"/>
	</g>
	<g>
		<path fill="#FFFFFF" d="M3.199,35.995c-0.282,0-0.564-0.056-0.846-0.169c-0.79-0.338-1.241-1.072-1.241-1.918V19.523
			c0-2.538,2.087-4.569,4.569-4.569h37.738c2.538,0,4.569,2.087,4.569,4.569v9.025c0,2.538-2.087,4.569-4.569,4.569H7.261
			l-2.708,2.369C4.158,35.825,3.707,35.995,3.199,35.995z M5.681,17.774c-0.959,0-1.749,0.79-1.749,1.749v12.692l2.256-1.918h37.23
			c0.959,0,1.749-0.79,1.749-1.749v-9.025c0-0.959-0.79-1.749-1.749-1.749C43.419,17.774,5.681,17.774,5.681,17.774z"/>
	</g>
</g>
</svg>
