<?xml version="1.0" encoding="utf-8"?>
<!-- Generator: Adobe Illustrator 19.0.0, SVG Export Plug-In . SVG Version: 6.00 Build 0)  -->
<svg version="1.1" id="Layer_1" xmlns="http://www.w3.org/2000/svg" xmlns:xlink="http://www.w3.org/1999/xlink" x="0px" y="0px"
	 viewBox="-480 132.4 37.6 37.6" enable-background="new -480 132.4 37.6 37.6" xml:space="preserve">
<g>
	<circle fill="#007BB5" cx="-461.2" cy="151.2" r="18.8"/>
	<path fill="#007BB5" d="M-456.8,152l0.4-3.4h-3.4v-2.2c0-1,0.3-1.7,1.7-1.7h1.8v-3c-0.3,0-1.4-0.1-2.6-0.1c-2.6,0-4.4,1.6-4.4,4.5
		v2.5h-3v3.4h3v8.8h3.5V152C-459.8,152-456.8,152-456.8,152z"/>
</g>
<g>
	<g>
		<path fill="#007BB5" d="M-450.861,138.048h-20.711c-0.989,0-1.794,0.785-1.794,1.753v20.797c0,0.968,0.804,1.754,1.794,1.754
			h20.711c0.992,0,1.798-0.786,1.798-1.754v-20.797C-449.063,138.833-449.869,138.048-450.861,138.048z"/>
		<path fill="#FFFFFF" d="M-469.764,147.159h3.606v11.598h-3.606V147.159z M-467.961,141.394c1.152,0,2.089,0.937,2.089,2.091
			c0,1.153-0.937,2.09-2.089,2.09c-1.155,0-2.089-0.937-2.089-2.09C-470.05,142.331-469.116,141.394-467.961,141.394"/>
		<path fill="#FFFFFF" d="M-463.897,147.159h3.457v1.586h0.05c0.481-0.912,1.657-1.873,3.411-1.873c3.65,0,4.324,2.401,4.324,5.524
			v6.361h-3.603v-5.64c0-1.345-0.024-3.075-1.873-3.075c-1.876,0-2.162,1.466-2.162,2.979v5.737h-3.603V147.159z"/>
	</g>
</g>
</svg>
