<?xml version="1.0" encoding="utf-8"?>
<!-- Generator: Adobe Illustrator 19.2.0, SVG Export Plug-In . SVG Version: 6.00 Build 0)  -->
<!DOCTYPE svg PUBLIC "-//W3C//DTD SVG 1.1//EN" "http://www.w3.org/Graphics/SVG/1.1/DTD/svg11.dtd">
<svg version="1.1" id="Layer_1" xmlns="http://www.w3.org/2000/svg" xmlns:xlink="http://www.w3.org/1999/xlink" x="0px" y="0px"
	 viewBox="0 0 170.4 208.9" enable-background="new 0 0 170.4 208.9" xml:space="preserve">
<g>
	<path fill="#FFFFFF" stroke="#7F2E91" stroke-width="7" stroke-miterlimit="10" d="M150.5,3.5H19.9c-9,0-16.4,7.4-16.4,16.4v130.6
		c0,9,7.4,16.4,16.4,16.4h45l6.6,11.4l13.7,23.6l13.7-23.6l6.6-11.4h45c9,0,16.4-7.4,16.4-16.4V19.9C166.9,10.9,159.5,3.5,150.5,3.5
		z"/>
	<g>
		<g>
			<g>
				<path fill="#B21E8E" d="M96.2,142.3h-35c-2,0-3.8-1.1-4.6-3c-0.8-1.8-0.5-3.9,0.8-5.4l5.7-6.6v-88c0-6.2,5-11.2,11.2-11.2h21.9
					c6.2,0,11.2,5,11.2,11.2v91.8C107.3,137.3,102.3,142.3,96.2,142.3z M65.3,135.3h30.8c2.3,0,4.2-1.9,4.2-4.2V39.3
					c0-2.3-1.9-4.2-4.2-4.2H74.2c-2.3,0-4.2,1.9-4.2,4.2v90.6L65.3,135.3z"/>
			</g>
			<g>
				<path fill="#7F2E91" d="M33.2,112.9c-0.7,0-1.4-0.2-2.1-0.5c-1.8-0.8-3-2.6-3-4.6v-35c0-6.2,5-11.2,11.2-11.2h91.8
					c6.2,0,11.2,5,11.2,11.2v21.9c0,6.2-5,11.2-11.2,11.2h-88l-6.6,5.7C35.5,112.5,34.4,112.9,33.2,112.9z M39.3,68.6
					c-2.3,0-4.2,1.9-4.2,4.2v30.8l5.4-4.7h90.6c2.3,0,4.2-1.9,4.2-4.2V72.8c0-2.3-1.9-4.2-4.2-4.2H39.3z"/>
			</g>
		</g>
	</g>
</g>
</svg>
