<?xml version="1.0" encoding="utf-8"?>
<!-- Generator: Adobe Illustrator 19.2.0, SVG Export Plug-In . SVG Version: 6.00 Build 0)  -->
<!DOCTYPE svg PUBLIC "-//W3C//DTD SVG 1.1//EN" "http://www.w3.org/Graphics/SVG/1.1/DTD/svg11.dtd">
<svg version="1.1" id="Layer_1" xmlns="http://www.w3.org/2000/svg" xmlns:xlink="http://www.w3.org/1999/xlink" x="0px" y="0px"
	 viewBox="0 0 38.7 23.2" enable-background="new 0 0 38.7 23.2" xml:space="preserve">
<path fill="#FFFFFF" d="M37.8,17.7c-0.1,0-0.1-0.1-0.2-0.1c-0.1,0-0.1,0-0.2,0.1c-0.1,0-0.1,0.1-0.1,0.1c0,0.1-0.1,0.1-0.1,0.2
	c0,0.1,0,0.1,0,0.2c0,0.1,0.1,0.1,0.1,0.1c0.1,0,0.1,0,0.2,0c0.1,0,0.1,0,0.2,0c0.1,0,0.1-0.1,0.1-0.1c0-0.1,0.1-0.1,0.1-0.2
	c0-0.1,0-0.1-0.1-0.2C37.9,17.8,37.8,17.7,37.8,17.7L37.8,17.7z M37.7,18.2L37.7,18.2c-0.1-0.1-0.1-0.1-0.1-0.2c0,0,0,0-0.1,0h0v0.2
	h-0.1v-0.4h0.1c0,0,0.1,0,0.1,0c0,0,0,0,0.1,0c0,0,0,0,0,0.1c0,0,0,0.1,0,0.1c0,0,0,0-0.1,0c0,0,0,0,0,0
	C37.7,18.1,37.7,18.1,37.7,18.2L37.7,18.2L37.7,18.2L37.7,18.2z M37.6,18C37.6,18,37.6,18,37.6,18l-0.2,0v-0.1h0.1
	C37.6,17.9,37.6,17.9,37.6,18C37.6,17.9,37.6,17.9,37.6,18C37.7,17.9,37.7,17.9,37.6,18C37.7,18,37.7,18,37.6,18L37.6,18z
	 M37.3,13.9c-0.1,0-0.1,0.1-0.1,0.1c0,0.1,0,0.1,0,0.2c0,0.1,0,0.1,0,0.2c0,0,0.1,0.1,0.1,0.1c0,0,0.1,0,0.2,0c0.1,0,0.1,0,0.2,0
	c0.1,0,0.1-0.1,0.1-0.1c0-0.1,0-0.1,0-0.2c0-0.1,0-0.1,0-0.2c0-0.1-0.1-0.1-0.1-0.1c-0.1,0-0.1,0-0.2,0
	C37.4,13.9,37.3,13.9,37.3,13.9L37.3,13.9z M37.6,14.1C37.6,14.1,37.6,14.1,37.6,14.1c0,0.1,0,0.1,0,0.1c0,0-0.1,0-0.1,0
	c0,0,0,0,0,0c0,0,0,0,0.1,0.1l0.1,0.1h-0.1l0-0.1c0-0.1,0-0.1-0.1-0.1c0,0,0,0-0.1,0h0v0.2h-0.1V14h0.1C37.4,14,37.5,14,37.6,14.1
	C37.5,14,37.5,14,37.6,14.1L37.6,14.1z M37.4,14.1C37.4,14.1,37.5,14.1,37.4,14.1C37.5,14.1,37.5,14.1,37.4,14.1
	c0.1,0,0.1,0,0.1,0.1c0,0,0,0,0,0c0,0,0,0-0.1,0h-0.1L37.4,14.1L37.4,14.1z M28.8,12.4c0.2,0,0.2,0,0.3,0c0,0.2-0.1,1.2-0.9,1.2
	c-0.4,0-0.5-0.3-0.5-0.5C27.7,12.8,27.9,12.4,28.8,12.4L28.8,12.4z M8.8,12.4c0.2,0,0.2,0,0.3,0c0,0.2-0.1,1.2-0.9,1.2
	c-0.4,0-0.5-0.3-0.5-0.5C7.7,12.8,7.9,12.4,8.8,12.4L8.8,12.4z M27.1,0c-3,0-5.7,1.1-7.8,3c-2.1-1.9-4.8-3-7.8-3h-0.1
	C5.2,0,0,5.2,0,11.6C0,18,5.2,23.2,11.6,23.2c3,0,5.7-1.1,7.8-3c-0.4-0.4-0.8-0.8-1.2-1.3h2.4c-0.4,0.4-0.8,0.9-1.2,1.2h0
	c0,0,0,0,0,0c2.1,1.9,4.8,3,7.8,3c6.4,0,11.6-5.2,11.6-11.6v0C38.7,5.2,33.6,0,27.1,0L27.1,0z M18.3,4.2h2.2
	c0.3,0.4,0.6,0.8,0.9,1.2h-3.9C17.7,5,18,4.6,18.3,4.2L18.3,4.2z M16.8,6.7h5.3c0.2,0.4,0.4,0.8,0.5,1.2h-6.4
	C16.2,7.8,16.5,7.3,16.8,6.7L16.8,6.7z M4.7,14.6l0.7-4.4l-1.6,4.4H3l-0.1-4.4l-0.8,4.4H0.9l1-5.9h1.8l0.1,3.6L5,8.7h2l-1,5.9H4.7z
	 M8.9,14.5l0-0.5c0,0-0.4,0.6-1.3,0.6c-0.5,0-1.2-0.2-1.2-1.3c0-1.4,1.1-1.8,2.2-1.8c0.2,0,0.5,0,0.5,0s0-0.1,0-0.3
	c0-0.4-0.3-0.4-0.8-0.4c-0.8,0-1.3,0.2-1.3,0.2l0.2-1.1c0,0,0.6-0.3,1.5-0.3c0.4,0,1.7,0,1.7,1.5L10,14.5L8.9,14.5L8.9,14.5z
	 M13.5,13c0,1.6-1.6,1.6-1.9,1.6c-1,0-1.4-0.1-1.4-0.2l0.2-1.1c0,0,0.5,0.2,1.1,0.2c0.3,0,0.8,0,0.8-0.4c0-0.6-1.5-0.5-1.5-1.9
	c0-1.2,0.9-1.6,1.8-1.6c0.7,0,1.1,0.1,1.1,0.1l-0.2,1.1c0,0-0.7-0.1-0.8-0.1c-0.4,0-0.7,0.1-0.7,0.4C12.1,11.8,13.5,11.5,13.5,13
	L13.5,13z M15.4,13.5c0.1,0,0.2,0,0.3,0l-0.2,1.1c-0.1,0-0.5,0.2-0.9,0.2c-0.6,0-1-0.3-1-1c0-0.5,0.7-4.5,0.7-4.6h1.2l-0.1,0.7h0.6
	L16,10.9h-0.7L15,13.1C15,13.2,15,13.5,15.4,13.5L15.4,13.5z M18.2,9.6c1.4,0,1.8,1,1.8,1.8c0,0.3-0.2,1.1-0.2,1.1h-2.5
	c0,0-0.2,1,1.1,1c0.6,0,1.3-0.3,1.3-0.3l-0.2,1.2c0,0-0.4,0.2-1.3,0.2c-1,0-2.1-0.4-2.1-2.2C16,11,16.9,9.6,18.2,9.6L18.2,9.6z
	 M21.4,17.7h-4.1c-0.2-0.4-0.5-0.8-0.7-1.2h5.5C21.9,16.9,21.7,17.3,21.4,17.7L21.4,17.7z M21.2,14.6h-1.3l0.8-4.8h1.1l-0.1,0.7
	c0,0,0.4-0.8,1-0.8c0.2,0,0.2,0,0.2,0c-0.2,0.3-0.3,0.6-0.5,1.4C21.6,10.9,21.5,12.5,21.2,14.6L21.2,14.6z M26,14.5
	c0,0-0.7,0.2-1.1,0.2c-1.5,0-2.2-1-2.2-2.6c0-2.3,1.4-3.6,2.8-3.6c0.6,0,1.4,0.3,1.4,0.3l-0.2,1.3c0,0-0.5-0.4-1.1-0.4
	c-0.8,0-1.6,0.8-1.6,2.3c0,0.7,0.4,1.4,1.2,1.4c0.4,0,1-0.3,1-0.3L26,14.5z M29,14.5l0-0.5c0,0-0.4,0.6-1.3,0.6
	c-0.5,0-1.2-0.2-1.2-1.3c0-1.4,1.1-1.8,2.2-1.8c0.2,0,0.5,0,0.5,0s0-0.1,0-0.3c0-0.4-0.3-0.4-0.8-0.4c-0.8,0-1.3,0.2-1.3,0.2
	l0.2-1.1c0,0,0.7-0.3,1.5-0.3c0.4,0,1.7,0,1.7,1.5L30,14.5C30,14.5,29,14.5,29,14.5L29,14.5z M31.5,14.6h-1.3L31,9.8h1.2l-0.1,0.7
	c0,0,0.4-0.8,1-0.8c0.2,0,0.2,0,0.2,0c-0.2,0.3-0.3,0.6-0.5,1.4C32,10.9,31.9,12.5,31.5,14.6L31.5,14.6z M37.7,14
	c0,0.1,0.1,0.1,0.1,0.2c0,0.1,0,0.1-0.1,0.2c0,0.1-0.1,0.1-0.1,0.1c-0.1,0-0.1,0.1-0.2,0.1c-0.1,0-0.1,0-0.2-0.1
	c-0.1,0-0.1-0.1-0.1-0.1c0-0.1-0.1-0.1-0.1-0.2c0-0.1,0-0.1,0.1-0.2c0-0.1,0.1-0.1,0.1-0.1c0.1,0,0.1,0,0.2,0c0.1,0,0.1,0,0.2,0
	C37.7,13.9,37.7,13.9,37.7,14L37.7,14z M35.9,10.3l0.3-1.7l1.2,0l-0.9,5.9h-1.2l0.1-0.4c0,0-0.4,0.5-1.2,0.5c-1,0-1.5-1-1.5-2
	c0-1.6,0.9-2.9,2.1-2.9C35.5,9.7,35.9,10.3,35.9,10.3L35.9,10.3z M18.7,11.6h-1.4c0-0.1,0.1-0.8,0.8-0.8
	C18.9,10.7,18.7,11.5,18.7,11.6L18.7,11.6z M35,10.9c0.4,0,0.7,0.3,0.7,1c0,0.6-0.3,1.5-1,1.5c-0.4,0-0.7-0.4-0.7-1
	C34,11.5,34.4,10.9,35,10.9L35,10.9z M35,10.9"/>
</svg>
