<?xml version="1.0" encoding="utf-8"?>
<!-- Generator: Adobe Illustrator 19.2.0, SVG Export Plug-In . SVG Version: 6.00 Build 0)  -->
<!DOCTYPE svg PUBLIC "-//W3C//DTD SVG 1.1//EN" "http://www.w3.org/Graphics/SVG/1.1/DTD/svg11.dtd">
<svg version="1.1" xmlns="http://www.w3.org/2000/svg" xmlns:xlink="http://www.w3.org/1999/xlink" x="0px" y="0px"
	 viewBox="0 0 164 43.7" enable-background="new 0 0 164 43.7" xml:space="preserve">
<g id="Background">
</g>
<g id="Guides">
</g>
<g id="Foreground">
	<g>
		<g>
			<path fill-rule="evenodd" clip-rule="evenodd" fill="#FFFFFF" d="M128.1,6.9c-4.1,0-7.3,1.1-9.8,1.6l-0.8,6.2
				c1.2-0.6,5.2-1.7,8.4-1.8c3.2-0.1,5.2,0.6,4.5,3.4c-9.6,0-16.1,2-17.5,8.2c-1.9,10.7,9.8,10.4,14.5,5.7l-0.6,2.6h8.6l3.7-17
				C140.7,8.6,134.1,6.8,128.1,6.9z M128.7,24.3c-0.5,2.3-2.3,3.3-4.5,3.4c-1.9,0.1-3.6-1.6-2.4-3.6c1-1.7,3.6-2.1,5.2-2.1
				c0.7,0,1.4,0,2.1,0C129,22.8,128.9,23.5,128.7,24.3z"/>
			<polygon fill-rule="evenodd" clip-rule="evenodd" fill="#FFFFFF" points="146.5,0.1 139.4,32.8 148.2,32.8 155.3,0.1 146.5,0.1 
				146.5,0.1 			"/>
			<path fill-rule="evenodd" clip-rule="evenodd" fill="#FFFFFF" d="M106.4,0.2h-16l-7.1,32.6h9.3L95.1,22h6.6
				c6.5,0,11.9-4,13.3-10.7C116.6,3.7,111,0.2,106.4,0.2z M106.2,11.3c-0.6,2.5-3.1,4.5-5.5,4.5h-4.3l1.9-8.9h4.6
				C105.3,6.9,106.7,8.9,106.2,11.3z"/>
			<path fill-rule="evenodd" clip-rule="evenodd" fill="#FFFFFF" d="M44.5,6.9c-4.1,0-7.3,1.1-9.6,1.6l-0.8,6.2
				c1.1-0.6,5-1.7,8.2-1.8c3.2-0.1,5.1,0.6,4.5,3.4c-9.5,0-15.9,2-17.3,8.2c-1.9,10.7,9.7,10.4,14.2,5.7l-0.6,2.6h8.6l3.7-17
				C57,8.6,50.4,6.8,44.5,6.9z M45.1,24.3c-0.5,2.3-2.4,3.3-4.5,3.4c-1.9,0.1-3.5-1.6-2.3-3.6c0.9-1.7,3.6-2.1,5.1-2.1
				c0.8,0,1.4,0,2.2,0C45.4,22.8,45.2,23.5,45.1,24.3z"/>
			<polygon fill-rule="evenodd" clip-rule="evenodd" fill="#FFFFFF" points="59.2,7.3 67.8,7.3 69.2,22.5 77.6,7.3 86.4,7.3 
				66,43.7 56.5,43.7 62.7,33 59.2,7.3 59.2,7.3 			"/>
			<path fill-rule="evenodd" clip-rule="evenodd" fill="#FFFFFF" d="M23.1,0.2h-16L0,32.8h9.4L11.7,22h6.7c6.4,0,11.8-4,13.2-10.7
				C33.3,3.7,27.8,0.2,23.1,0.2z M22.8,11.3c-0.6,2.5-3,4.5-5.4,4.5H13l2-8.9h4.6C22,6.9,23.5,8.9,22.8,11.3z"/>
		</g>
		<path fill="#FFFFFF" d="M157.2,4.4V0.5h-1.4V0h3.5v0.5h-1.4v3.9H157.2z"/>
		<path fill="#FFFFFF" d="M159.8,4.4V0h0.9l1,3.1c0.1,0.3,0.2,0.5,0.2,0.6c0-0.2,0.1-0.4,0.2-0.7l1-3h0.8v4.4h-0.6V0.7l-1.3,3.7
			h-0.5l-1.3-3.7v3.7H159.8z"/>
	</g>
</g>
</svg>
