<?xml version="1.0" encoding="utf-8"?>
<!-- Generator: Adobe Illustrator 19.2.0, SVG Export Plug-In . SVG Version: 6.00 Build 0)  -->
<!DOCTYPE svg PUBLIC "-//W3C//DTD SVG 1.1//EN" "http://www.w3.org/Graphics/SVG/1.1/DTD/svg11.dtd">
<svg version="1.1" id="Layer_1" xmlns="http://www.w3.org/2000/svg" xmlns:xlink="http://www.w3.org/1999/xlink" x="0px" y="0px"
	 viewBox="0 0 7.1 9.3" enable-background="new 0 0 7.1 9.3" xml:space="preserve">
<path fill="#7B338A" d="M5.7,0.4c-0.1,0-0.2,0-0.3,0c-1.1,0.2-2.5,1.4-3.6,3C0.8,5.1,0.2,6.9,0.5,8c0.1,0.3,0.2,0.6,0.4,0.7l0.3,0.2
	c0.1,0.1,0.3,0,0.4-0.1l0.8-1.2c0-0.1,0.1-0.1,0-0.2c0-0.1-0.1-0.1-0.1-0.2L2,7C1.8,6.9,1.6,6.7,1.5,6.3C1.4,5.7,1.6,4.8,2.3,3.8
	c0.7-1,1.3-1.6,2-1.8C4.6,2,4.9,2,5.1,2.2l0.3,0.2c0.1,0.1,0.3,0,0.4-0.1l0.8-1.2c0-0.1,0.1-0.1,0-0.2c0-0.1-0.1-0.1-0.1-0.2
	L6.2,0.5C6.1,0.5,5.9,0.4,5.7,0.4 M1.3,9.2c-0.1,0-0.2,0-0.3-0.1L0.7,8.9C0.4,8.7,0.3,8.4,0.2,8c-0.2-1.2,0.3-3,1.4-4.7
	c1.1-1.7,2.6-2.9,3.7-3.2c0.4-0.1,0.8,0,1,0.1l0.3,0.2c0.1,0.1,0.2,0.2,0.2,0.4c0,0.1,0,0.3-0.1,0.4L6.1,2.5
	C5.9,2.7,5.5,2.8,5.3,2.6L5,2.4C4.8,2.3,4.6,2.3,4.3,2.3C3.8,2.4,3.2,3,2.6,4C2.1,4.6,1.6,5.6,1.8,6.2C1.8,6.5,2,6.7,2.1,6.8L2.4,7
	c0.1,0.1,0.2,0.2,0.2,0.4c0,0.1,0,0.3-0.1,0.4L1.8,8.9C1.7,9.1,1.5,9.2,1.3,9.2"/>
<path fill="#7B338A" d="M5.7,0.4c-0.1,0-0.2,0-0.3,0c-1.1,0.2-2.5,1.4-3.6,3C0.8,5.1,0.2,6.9,0.5,8c0.1,0.3,0.2,0.6,0.4,0.7l0.3,0.2
	c0.1,0.1,0.3,0,0.4-0.1l0.8-1.2c0-0.1,0.1-0.1,0-0.2c0-0.1-0.1-0.1-0.1-0.2L2,7C1.8,6.9,1.6,6.7,1.5,6.3C1.4,5.7,1.6,4.8,2.3,3.8
	c0.7-1,1.3-1.6,2-1.8C4.6,2,4.9,2,5.1,2.2l0.3,0.2c0.1,0.1,0.3,0,0.4-0.1l0.8-1.2c0-0.1,0.1-0.1,0-0.2c0-0.1-0.1-0.1-0.1-0.2
	L6.2,0.5C6.1,0.5,5.9,0.4,5.7,0.4z M1.3,9.2c-0.1,0-0.2,0-0.3-0.1L0.7,8.9C0.4,8.7,0.3,8.4,0.2,8c-0.2-1.2,0.3-3,1.4-4.7
	c1.1-1.7,2.6-2.9,3.7-3.2c0.4-0.1,0.8,0,1,0.1l0.3,0.2c0.1,0.1,0.2,0.2,0.2,0.4c0,0.1,0,0.3-0.1,0.4L6.1,2.5
	C5.9,2.7,5.5,2.8,5.3,2.6L5,2.4C4.8,2.3,4.6,2.3,4.3,2.3C3.8,2.4,3.2,3,2.6,4C2.1,4.6,1.6,5.6,1.8,6.2C1.8,6.5,2,6.7,2.1,6.8L2.4,7
	c0.1,0.1,0.2,0.2,0.2,0.4c0,0.1,0,0.3-0.1,0.4L1.8,8.9C1.7,9.1,1.5,9.2,1.3,9.2z"/>
</svg>
