<?xml version="1.0" encoding="utf-8"?>
<!-- Generator: Adobe Illustrator 19.2.0, SVG Export Plug-In . SVG Version: 6.00 Build 0)  -->
<!DOCTYPE svg PUBLIC "-//W3C//DTD SVG 1.1//EN" "http://www.w3.org/Graphics/SVG/1.1/DTD/svg11.dtd">
<svg version="1.1" id="Layer_1" xmlns="http://www.w3.org/2000/svg" xmlns:xlink="http://www.w3.org/1999/xlink" x="0px" y="0px"
	 viewBox="0 0 448.2 83.2" enable-background="new 0 0 448.2 83.2" xml:space="preserve">
<g>
	<g>
		<g>
			<path fill="#B21E8E" d="M49.6,83.2H24.1c-1.5,0-2.8-0.8-3.4-2.2c-0.6-1.3-0.4-2.9,0.6-4l4.2-4.8V8.1c0-4.5,3.7-8.1,8.1-8.1h16
				c4.5,0,8.1,3.7,8.1,8.1v66.9C57.7,79.6,54.1,83.2,49.6,83.2z M27.1,78.1h22.5c1.7,0,3.1-1.4,3.1-3.1V8.1c0-1.7-1.4-3.1-3.1-3.1
				h-16c-1.7,0-3.1,1.4-3.1,3.1v66L27.1,78.1z"/>
		</g>
		<g>
			<path fill="#7F2E91" d="M3.7,61.8c-0.5,0-1-0.1-1.5-0.3C0.8,60.9,0,59.6,0,58.1V32.6c0-4.5,3.7-8.1,8.1-8.1h66.9
				c4.5,0,8.1,3.7,8.1,8.1v16c0,4.5-3.7,8.1-8.1,8.1H10.9l-4.8,4.2C5.4,61.5,4.6,61.8,3.7,61.8z M8.1,29.5c-1.7,0-3.1,1.4-3.1,3.1
				v22.5l4-3.4h66c1.7,0,3.1-1.4,3.1-3.1v-16c0-1.7-1.4-3.1-3.1-3.1H8.1z"/>
		</g>
	</g>
	<g>
		<g>
			<path d="M104.5,26h9.3c2,0,3.6,0.3,4.9,0.8c1.3,0.6,2.3,1.3,3.1,2.1c0.8,0.8,1.3,1.8,1.6,2.9c0.3,1.1,0.5,2.1,0.5,3.1
				c0,1.5-0.2,2.8-0.7,3.9c-0.5,1.1-1.2,2-2.1,2.8c-0.9,0.7-1.9,1.3-3.1,1.7c-1.2,0.4-2.5,0.6-4,0.6h-5.3v11.5h-4.2V26z M114,40.1
				c1.8,0,3.2-0.5,4.2-1.4c1-0.9,1.5-2.2,1.5-3.8c0-1.7-0.5-3-1.5-3.9c-1-1-2.4-1.4-4.1-1.4h-5.3v10.6H114z"/>
			<path d="M126.8,34.8h4v12c0,1.9,0.4,3.3,1.2,4.2c0.8,0.9,1.9,1.3,3.4,1.3c1.1,0,2.1-0.2,2.8-0.7c0.7-0.5,1.4-1.1,1.8-1.8
				c0.5-0.7,0.8-1.6,1-2.5c0.2-1,0.3-1.9,0.3-2.9v-9.5h4v18.4c0,0.6,0,1.3,0,2.1h-3.8l-0.1-3c-0.3,0.4-0.6,0.7-1,1.1
				c-0.4,0.4-0.8,0.8-1.4,1.1c-0.6,0.3-1.2,0.6-1.9,0.9c-0.7,0.2-1.6,0.4-2.5,0.4c-2.7,0-4.6-0.8-5.9-2.3c-1.3-1.5-1.9-3.6-1.9-6.3
				V34.8z"/>
			<path d="M148.4,55.2V36.8c0-0.6,0-1.3,0-2h3.8l0.1,3.3c0.2-0.4,0.5-0.7,0.9-1.2c0.4-0.4,0.8-0.8,1.4-1.2c0.5-0.4,1.2-0.7,1.9-0.9
				c0.7-0.2,1.5-0.4,2.5-0.4c0.4,0,0.8,0,1.2,0.1c0.4,0.1,0.7,0.1,1,0.3l-0.9,3.7c-0.5-0.2-1.2-0.3-2-0.3c-0.8,0-1.6,0.2-2.3,0.5
				c-0.7,0.3-1.3,0.8-1.9,1.3c-0.5,0.6-0.9,1.2-1.3,2c-0.3,0.8-0.5,1.6-0.5,2.4v10.8H148.4z"/>
			<path d="M163.6,62.5V36.9c0-0.7,0-1.4,0-2.1h3.8l0.1,2.9c0.2-0.3,0.5-0.6,0.9-1c0.4-0.4,0.9-0.7,1.4-1.1c0.6-0.4,1.2-0.7,2-0.9
				c0.8-0.2,1.6-0.4,2.6-0.4c1.6,0,2.9,0.3,4.1,0.9c1.2,0.6,2.1,1.4,2.9,2.4c0.8,1,1.3,2.1,1.7,3.4c0.4,1.3,0.5,2.6,0.5,4.1
				c0,1.8-0.3,3.4-0.9,4.8c-0.6,1.3-1.4,2.5-2.5,3.3c-1,0.9-2.1,1.5-3.4,2c-1.2,0.4-2.5,0.6-3.7,0.6c-1.4,0-2.5-0.1-3.3-0.4
				c-0.8-0.3-1.6-0.6-2.3-0.9v8H163.6z M167.5,50.8c0.5,0.4,1.1,0.7,2,1.1c0.9,0.4,2,0.5,3.3,0.5c1,0,1.9-0.2,2.7-0.5
				c0.8-0.4,1.6-0.9,2.2-1.5c0.6-0.7,1.1-1.4,1.4-2.3c0.3-0.9,0.5-1.8,0.5-2.9c0-1-0.1-1.9-0.3-2.8c-0.2-0.9-0.6-1.7-1.1-2.3
				c-0.5-0.7-1.1-1.2-1.9-1.6c-0.8-0.4-1.7-0.6-2.8-0.6c-1.4,0-2.6,0.4-3.6,1.2c-1,0.8-1.7,1.9-2.1,3.4c-0.1,0.5-0.2,1-0.3,1.5
				c0,0.5,0,1.1,0,1.7V50.8z"/>
			<path d="M186.5,26h4v29.3h-4V26z"/>
			<path d="M213.1,52.3c-0.2,0.3-0.6,0.6-1.1,1c-0.5,0.4-1.1,0.8-1.8,1.2c-0.7,0.4-1.6,0.7-2.6,1c-1,0.3-2.2,0.4-3.4,0.4
				c-1.6,0-3-0.3-4.3-0.8c-1.3-0.5-2.4-1.3-3.4-2.2c-0.9-1-1.7-2.1-2.2-3.5c-0.5-1.3-0.8-2.8-0.8-4.5c0-1.5,0.2-2.9,0.7-4.2
				c0.5-1.3,1.2-2.4,2.1-3.4c0.9-1,2-1.7,3.2-2.3c1.2-0.6,2.6-0.8,4.1-0.8c1.8,0,3.3,0.3,4.5,1s2.3,1.6,3.1,2.7
				c0.8,1.1,1.4,2.4,1.8,3.8c0.4,1.4,0.6,2.9,0.6,4.5h-16.1c0,0.9,0.2,1.7,0.6,2.5c0.4,0.8,0.9,1.4,1.5,2c0.6,0.6,1.3,1,2.1,1.3
				c0.8,0.3,1.6,0.5,2.5,0.5c1.7,0,3.1-0.3,4.3-0.9c1.1-0.6,1.9-1.2,2.4-1.7L213.1,52.3z M209.5,43.3c-0.1-1.6-0.7-2.9-1.7-4
				c-1-1.1-2.4-1.7-4.2-1.7c-0.9,0-1.8,0.2-2.5,0.5c-0.7,0.3-1.4,0.7-1.9,1.3c-0.5,0.5-0.9,1.1-1.2,1.8c-0.3,0.7-0.5,1.4-0.5,2.1
				H209.5z"/>
		</g>
		<g>
			<path d="M224.6,26h9.8c2.3,0,4.4,0.3,6.4,0.9c1.9,0.6,3.6,1.5,5,2.7c1.4,1.2,2.5,2.7,3.3,4.6c0.8,1.8,1.2,4,1.2,6.6
				c0,2.5-0.4,4.6-1.2,6.4c-0.8,1.8-1.9,3.4-3.3,4.6c-1.4,1.2-3.1,2.1-5,2.7c-2,0.6-4.1,0.9-6.4,0.9h-9.7V26z M234.3,51.5
				c3.7,0,6.5-0.9,8.5-2.7c2-1.8,3.1-4.5,3.1-8c0-3.6-1-6.3-2.9-8.2c-2-1.9-4.9-2.8-8.8-2.8h-5.3v21.7H234.3z"/>
			<path d="M263.6,55.9c-1.6,0-3-0.3-4.3-0.9c-1.3-0.6-2.5-1.4-3.4-2.3c-1-1-1.7-2.1-2.2-3.4c-0.5-1.3-0.8-2.7-0.8-4.2
				c0-1.5,0.3-2.9,0.8-4.2c0.5-1.3,1.3-2.5,2.2-3.4c1-1,2.1-1.8,3.4-2.3c1.3-0.6,2.8-0.9,4.3-0.9c1.6,0,3,0.3,4.3,0.9
				s2.5,1.4,3.4,2.3c1,1,1.7,2.1,2.3,3.4c0.5,1.3,0.8,2.7,0.8,4.2c0,1.5-0.3,2.9-0.8,4.2c-0.5,1.3-1.3,2.5-2.3,3.4
				c-1,1-2.1,1.8-3.4,2.3S265.1,55.9,263.6,55.9z M263.6,52.4c1.1,0,2-0.2,2.9-0.6c0.8-0.4,1.6-1,2.2-1.7c0.6-0.7,1-1.5,1.3-2.4
				c0.3-0.9,0.5-1.8,0.5-2.7c0-0.9-0.2-1.8-0.5-2.7c-0.3-0.9-0.8-1.7-1.4-2.4c-0.6-0.7-1.3-1.3-2.2-1.7c-0.8-0.4-1.8-0.6-2.8-0.6
				c-1.1,0-2,0.2-2.9,0.6c-0.8,0.4-1.6,1-2.2,1.7c-0.6,0.7-1,1.5-1.3,2.4c-0.3,0.9-0.5,1.8-0.5,2.7c0,0.9,0.2,1.8,0.5,2.7
				c0.3,0.9,0.8,1.7,1.4,2.4c0.6,0.7,1.3,1.3,2.2,1.7C261.6,52.2,262.5,52.4,263.6,52.4z"/>
			<path d="M280.6,59.4c0.7,0.5,1.5,0.9,2.5,1.2c1,0.3,2.2,0.5,3.6,0.5c2,0,3.4-0.5,4.4-1.6c1-1.1,1.4-2.5,1.4-4.3v-2.5
				c-0.2,0.2-0.5,0.4-0.8,0.7s-0.8,0.6-1.3,0.9c-0.5,0.3-1.1,0.5-1.8,0.7c-0.7,0.2-1.5,0.3-2.4,0.3c-1.5,0-2.8-0.3-4-0.8
				c-1.2-0.5-2.1-1.2-2.9-2.1c-0.8-0.9-1.4-2-1.8-3.2c-0.4-1.2-0.6-2.6-0.6-4.1c0-1.6,0.3-3,0.8-4.4c0.6-1.3,1.3-2.5,2.3-3.5
				c1-1,2.2-1.7,3.6-2.3c1.4-0.5,3-0.8,4.7-0.8c1.7,0,3.2,0.1,4.7,0.4c1.4,0.3,2.6,0.6,3.5,1v19.5c0,3-0.9,5.2-2.6,6.9
				c-1.7,1.6-4.1,2.4-7.2,2.4c-2.1,0-3.7-0.2-5-0.7c-1.2-0.5-2.2-1-3-1.6L280.6,59.4z M292.5,38.4c-0.3-0.1-0.7-0.2-1.3-0.4
				c-0.6-0.2-1.6-0.2-2.8-0.2c-1.1,0-2.1,0.2-3,0.5c-0.9,0.4-1.7,0.9-2.3,1.5c-0.7,0.7-1.2,1.4-1.5,2.3c-0.4,0.9-0.5,1.9-0.5,3
				c0,0.9,0.1,1.8,0.3,2.6c0.2,0.8,0.6,1.5,1.1,2.2c0.5,0.6,1.1,1.1,1.8,1.4c0.7,0.4,1.6,0.5,2.7,0.5c1,0,1.8-0.1,2.5-0.4
				c0.7-0.3,1.3-0.7,1.8-1.2c0.5-0.5,0.8-1,1.1-1.6c0.2-0.6,0.4-1.2,0.4-1.9V38.4z"/>
		</g>
	</g>
	<g>
		<path d="M175.5,66.7c0,0-0.1,0.1-0.2,0.2s-0.2,0.2-0.3,0.2c-0.1,0.1-0.3,0.2-0.4,0.2c-0.2,0.1-0.4,0.1-0.6,0.1
			c-0.3,0-0.6-0.1-0.8-0.2c-0.3-0.1-0.5-0.3-0.7-0.5s-0.3-0.5-0.4-0.8s-0.2-0.6-0.2-1c0-0.4,0.1-0.8,0.2-1.1
			c0.2-0.3,0.3-0.6,0.6-0.8s0.5-0.4,0.8-0.4c0.3-0.1,0.5-0.1,0.8-0.1c0.3,0,0.6,0,0.8,0.1c0.2,0.1,0.3,0.1,0.4,0.2v-2.2h0.9v6.2
			c0,0.1,0,0.3,0,0.5h-0.9L175.5,66.7z M175.5,63.7c-0.1-0.1-0.2-0.1-0.4-0.2c-0.2-0.1-0.4-0.1-0.8-0.1c-0.2,0-0.4,0-0.6,0.1
			c-0.2,0.1-0.3,0.2-0.5,0.3c-0.1,0.1-0.2,0.3-0.3,0.5s-0.1,0.5-0.1,0.7c0,0.2,0,0.4,0.1,0.6s0.1,0.4,0.2,0.5
			c0.1,0.1,0.3,0.3,0.4,0.3c0.2,0.1,0.4,0.1,0.6,0.1s0.4,0,0.6-0.1s0.3-0.2,0.4-0.3c0.1-0.1,0.2-0.3,0.2-0.4
			c0.1-0.2,0.1-0.3,0.1-0.4V63.7z"/>
		<path d="M182.3,66.6c-0.1,0.1-0.1,0.1-0.2,0.2c-0.1,0.1-0.2,0.2-0.4,0.3s-0.4,0.2-0.6,0.2c-0.2,0.1-0.5,0.1-0.8,0.1
			c-0.4,0-0.7-0.1-1-0.2c-0.3-0.1-0.6-0.3-0.8-0.5s-0.4-0.5-0.5-0.8c-0.1-0.3-0.2-0.6-0.2-1c0-0.3,0.1-0.7,0.2-1
			c0.1-0.3,0.3-0.6,0.5-0.8c0.2-0.2,0.5-0.4,0.7-0.5s0.6-0.2,0.9-0.2c0.4,0,0.7,0.1,1,0.2c0.3,0.2,0.5,0.4,0.7,0.6
			c0.2,0.3,0.3,0.5,0.4,0.9s0.1,0.7,0.1,1h-3.7c0,0.2,0.1,0.4,0.1,0.6c0.1,0.2,0.2,0.3,0.3,0.5c0.1,0.1,0.3,0.2,0.5,0.3
			c0.2,0.1,0.4,0.1,0.6,0.1c0.4,0,0.7-0.1,1-0.2c0.3-0.1,0.4-0.3,0.6-0.4L182.3,66.6z M181.5,64.6c0-0.4-0.2-0.7-0.4-0.9
			c-0.2-0.3-0.5-0.4-1-0.4c-0.2,0-0.4,0-0.6,0.1s-0.3,0.2-0.4,0.3s-0.2,0.3-0.3,0.4c-0.1,0.2-0.1,0.3-0.1,0.5H181.5z"/>
		<path d="M183.8,60.6h0.9v6.7h-0.9V60.6z"/>
		<path d="M186.3,60.8h1v1h-1V60.8z M186.4,62.6h0.9v4.7h-0.9V62.6z"/>
		<path d="M188.2,62.6h1l1.5,3.6l1.4-3.6h1l-2,4.7h-0.9L188.2,62.6z"/>
		<path d="M198.3,66.6c-0.1,0.1-0.1,0.1-0.2,0.2c-0.1,0.1-0.2,0.2-0.4,0.3s-0.4,0.2-0.6,0.2c-0.2,0.1-0.5,0.1-0.8,0.1
			c-0.4,0-0.7-0.1-1-0.2c-0.3-0.1-0.6-0.3-0.8-0.5s-0.4-0.5-0.5-0.8c-0.1-0.3-0.2-0.6-0.2-1c0-0.3,0.1-0.7,0.2-1
			c0.1-0.3,0.3-0.6,0.5-0.8c0.2-0.2,0.5-0.4,0.7-0.5s0.6-0.2,0.9-0.2c0.4,0,0.7,0.1,1,0.2c0.3,0.2,0.5,0.4,0.7,0.6
			c0.2,0.3,0.3,0.5,0.4,0.9s0.1,0.7,0.1,1h-3.7c0,0.2,0.1,0.4,0.1,0.6c0.1,0.2,0.2,0.3,0.3,0.5c0.1,0.1,0.3,0.2,0.5,0.3
			c0.2,0.1,0.4,0.1,0.6,0.1c0.4,0,0.7-0.1,1-0.2c0.3-0.1,0.4-0.3,0.6-0.4L198.3,66.6z M197.5,64.6c0-0.4-0.2-0.7-0.4-0.9
			c-0.2-0.3-0.5-0.4-1-0.4c-0.2,0-0.4,0-0.6,0.1s-0.3,0.2-0.4,0.3s-0.2,0.3-0.3,0.4c-0.1,0.2-0.1,0.3-0.1,0.5H197.5z"/>
		<path d="M199.8,67.3v-4.2c0-0.1,0-0.3,0-0.5h0.9l0,0.8c0.1-0.1,0.1-0.2,0.2-0.3c0.1-0.1,0.2-0.2,0.3-0.3s0.3-0.1,0.4-0.2
			c0.2-0.1,0.4-0.1,0.6-0.1c0.1,0,0.2,0,0.3,0c0.1,0,0.2,0,0.2,0.1l-0.2,0.8c-0.1,0-0.3-0.1-0.5-0.1c-0.2,0-0.4,0-0.5,0.1
			c-0.2,0.1-0.3,0.2-0.4,0.3c-0.1,0.1-0.2,0.3-0.3,0.5s-0.1,0.4-0.1,0.6v2.5H199.8z"/>
		<path d="M203.8,60.8h1v1h-1V60.8z M203.9,62.6h0.9v4.7h-0.9V62.6z"/>
		<path d="M206.5,67.3v-4.2c0-0.2,0-0.3,0-0.5h0.9l0,0.7c0.1-0.1,0.1-0.2,0.2-0.3s0.2-0.2,0.3-0.3c0.1-0.1,0.3-0.1,0.4-0.2
			c0.2-0.1,0.4-0.1,0.6-0.1c0.6,0,1.1,0.2,1.4,0.5c0.3,0.4,0.4,0.8,0.4,1.4v2.8h-0.9v-2.7c0-0.4-0.1-0.8-0.3-1s-0.5-0.3-0.8-0.3
			c-0.3,0-0.5,0.1-0.7,0.2c-0.2,0.1-0.3,0.2-0.4,0.4s-0.2,0.4-0.2,0.6c0,0.2-0.1,0.4-0.1,0.7v2.2H206.5z"/>
		<path d="M213,68.3c0.2,0.1,0.3,0.2,0.6,0.3c0.2,0.1,0.5,0.1,0.8,0.1c0.4,0,0.8-0.1,1-0.4c0.2-0.2,0.3-0.6,0.3-1v-0.6
			c0,0-0.1,0.1-0.2,0.2s-0.2,0.1-0.3,0.2c-0.1,0.1-0.3,0.1-0.4,0.2c-0.2,0-0.3,0.1-0.6,0.1c-0.3,0-0.6-0.1-0.9-0.2
			c-0.3-0.1-0.5-0.3-0.7-0.5s-0.3-0.4-0.4-0.7c-0.1-0.3-0.1-0.6-0.1-0.9c0-0.4,0.1-0.7,0.2-1s0.3-0.6,0.5-0.8
			c0.2-0.2,0.5-0.4,0.8-0.5c0.3-0.1,0.7-0.2,1.1-0.2c0.4,0,0.7,0,1.1,0.1c0.3,0.1,0.6,0.1,0.8,0.2v4.5c0,0.7-0.2,1.2-0.6,1.6
			s-0.9,0.6-1.7,0.6c-0.5,0-0.9-0.1-1.1-0.2c-0.3-0.1-0.5-0.2-0.7-0.4L213,68.3z M215.7,63.5c-0.1,0-0.2,0-0.3-0.1
			c-0.1,0-0.4-0.1-0.6-0.1c-0.3,0-0.5,0-0.7,0.1s-0.4,0.2-0.5,0.4c-0.2,0.2-0.3,0.3-0.4,0.5c-0.1,0.2-0.1,0.4-0.1,0.7
			c0,0.2,0,0.4,0.1,0.6c0.1,0.2,0.1,0.4,0.2,0.5s0.2,0.3,0.4,0.3s0.4,0.1,0.6,0.1c0.2,0,0.4,0,0.6-0.1c0.2-0.1,0.3-0.2,0.4-0.3
			c0.1-0.1,0.2-0.2,0.2-0.4c0.1-0.1,0.1-0.3,0.1-0.4V63.5z"/>
		<path d="M223.4,66.7c-0.2,0.2-0.4,0.4-0.7,0.5c-0.3,0.1-0.6,0.2-0.9,0.2c-0.2,0-0.4,0-0.6-0.1c-0.2-0.1-0.4-0.1-0.5-0.3
			s-0.3-0.3-0.4-0.5c-0.1-0.2-0.1-0.4-0.1-0.7c0-0.5,0.2-0.9,0.5-1.2c0.4-0.3,0.9-0.5,1.5-0.5c0.1,0,0.2,0,0.3,0c0.1,0,0.2,0,0.3,0
			c0.1,0,0.2,0,0.3,0c0.1,0,0.1,0,0.2,0v-0.2c0-0.3-0.1-0.6-0.3-0.7c-0.2-0.2-0.5-0.2-0.9-0.2c-0.4,0-0.6,0-0.8,0.1
			c-0.2,0.1-0.4,0.2-0.5,0.3l-0.4-0.6c0.1-0.1,0.2-0.1,0.3-0.2c0.1-0.1,0.2-0.1,0.4-0.2c0.2-0.1,0.3-0.1,0.5-0.1
			c0.2,0,0.4-0.1,0.7-0.1c0.6,0,1.1,0.1,1.4,0.4c0.3,0.3,0.5,0.7,0.5,1.2v2.7c0,0.2,0,0.3,0,0.4h-0.8L223.4,66.7z M223.4,65.1
			c0,0-0.1,0-0.2,0c-0.1,0-0.2,0-0.3,0c-0.1,0-0.2,0-0.3,0c-0.1,0-0.2,0-0.3,0c-0.3,0-0.5,0-0.6,0.1c-0.2,0.1-0.3,0.1-0.4,0.2
			c-0.1,0.1-0.2,0.2-0.2,0.3s0,0.2,0,0.3c0,0.3,0.1,0.4,0.3,0.6c0.2,0.1,0.4,0.2,0.7,0.2c0.2,0,0.3,0,0.5-0.1
			c0.2-0.1,0.3-0.1,0.4-0.2s0.2-0.2,0.3-0.4s0.1-0.3,0.1-0.4V65.1z"/>
		<path d="M231.4,66.7c0,0-0.1,0.1-0.2,0.2s-0.2,0.2-0.3,0.2c-0.1,0.1-0.3,0.2-0.4,0.2c-0.2,0.1-0.4,0.1-0.6,0.1
			c-0.3,0-0.6-0.1-0.8-0.2c-0.3-0.1-0.5-0.3-0.7-0.5s-0.3-0.5-0.4-0.8s-0.2-0.6-0.2-1c0-0.4,0.1-0.8,0.2-1.1
			c0.2-0.3,0.3-0.6,0.6-0.8s0.5-0.4,0.8-0.4c0.3-0.1,0.5-0.1,0.8-0.1c0.3,0,0.6,0,0.8,0.1c0.2,0.1,0.3,0.1,0.4,0.2v-2.2h0.9v6.2
			c0,0.1,0,0.3,0,0.5h-0.9L231.4,66.7z M231.4,63.7c-0.1-0.1-0.2-0.1-0.4-0.2c-0.2-0.1-0.4-0.1-0.8-0.1c-0.2,0-0.4,0-0.6,0.1
			c-0.2,0.1-0.3,0.2-0.5,0.3c-0.1,0.1-0.2,0.3-0.3,0.5s-0.1,0.5-0.1,0.7c0,0.2,0,0.4,0.1,0.6s0.1,0.4,0.2,0.5
			c0.1,0.1,0.3,0.3,0.4,0.3c0.2,0.1,0.4,0.1,0.6,0.1s0.4,0,0.6-0.1s0.3-0.2,0.4-0.3c0.1-0.1,0.2-0.3,0.2-0.4
			c0.1-0.2,0.1-0.3,0.1-0.4V63.7z"/>
		<path d="M234,60.8h1v1h-1V60.8z M234,62.6h0.9v4.7H234V62.6z"/>
		<path d="M237,63.4h-0.9v-0.8h0.9v-0.3c0-0.3,0-0.6,0.1-0.9c0.1-0.2,0.2-0.4,0.4-0.6c0.2-0.1,0.3-0.3,0.5-0.3
			c0.2-0.1,0.4-0.1,0.6-0.1c0.2,0,0.5,0,0.7,0.1c0.2,0.1,0.4,0.2,0.6,0.4l-0.4,0.6c-0.2-0.2-0.5-0.3-0.8-0.3c-0.3,0-0.5,0.1-0.6,0.2
			c-0.1,0.2-0.2,0.4-0.2,0.8v0.4h2.2v-0.4c0-0.3,0-0.6,0.1-0.8c0.1-0.2,0.2-0.4,0.4-0.6s0.3-0.3,0.5-0.3c0.2-0.1,0.4-0.1,0.6-0.1
			c0.2,0,0.5,0,0.7,0.1c0.2,0.1,0.5,0.2,0.7,0.4l-0.5,0.6c-0.2-0.2-0.5-0.3-0.8-0.3c-0.3,0-0.5,0.1-0.6,0.3
			c-0.2,0.2-0.2,0.5-0.2,0.8v0.3h1.3v0.8H241v3.9h-0.9v-3.9h-2.2v3.9H237V63.4z"/>
		<path d="M247.5,66.6c-0.1,0.1-0.1,0.1-0.2,0.2c-0.1,0.1-0.2,0.2-0.4,0.3s-0.4,0.2-0.6,0.2c-0.2,0.1-0.5,0.1-0.8,0.1
			c-0.4,0-0.7-0.1-1-0.2c-0.3-0.1-0.6-0.3-0.8-0.5s-0.4-0.5-0.5-0.8c-0.1-0.3-0.2-0.6-0.2-1c0-0.3,0.1-0.7,0.2-1
			c0.1-0.3,0.3-0.6,0.5-0.8c0.2-0.2,0.5-0.4,0.7-0.5s0.6-0.2,0.9-0.2c0.4,0,0.7,0.1,1,0.2c0.3,0.2,0.5,0.4,0.7,0.6
			c0.2,0.3,0.3,0.5,0.4,0.9s0.1,0.7,0.1,1h-3.7c0,0.2,0.1,0.4,0.1,0.6c0.1,0.2,0.2,0.3,0.3,0.5c0.1,0.1,0.3,0.2,0.5,0.3
			c0.2,0.1,0.4,0.1,0.6,0.1c0.4,0,0.7-0.1,1-0.2c0.3-0.1,0.4-0.3,0.6-0.4L247.5,66.6z M246.7,64.6c0-0.4-0.2-0.7-0.4-0.9
			c-0.2-0.3-0.5-0.4-1-0.4c-0.2,0-0.4,0-0.6,0.1s-0.3,0.2-0.4,0.3s-0.2,0.3-0.3,0.4c-0.1,0.2-0.1,0.3-0.1,0.5H246.7z"/>
		<path d="M249,67.3v-4.2c0-0.1,0-0.3,0-0.5h0.9l0,0.8c0.1-0.1,0.1-0.2,0.2-0.3c0.1-0.1,0.2-0.2,0.3-0.3s0.3-0.1,0.4-0.2
			c0.2-0.1,0.4-0.1,0.6-0.1c0.1,0,0.2,0,0.3,0c0.1,0,0.2,0,0.2,0.1l-0.2,0.8c-0.1,0-0.3-0.1-0.5-0.1c-0.2,0-0.4,0-0.5,0.1
			c-0.2,0.1-0.3,0.2-0.4,0.3c-0.1,0.1-0.2,0.3-0.3,0.5s-0.1,0.4-0.1,0.6v2.5H249z"/>
		<path d="M257.1,66.6c-0.1,0.1-0.1,0.1-0.2,0.2c-0.1,0.1-0.2,0.2-0.4,0.3s-0.4,0.2-0.6,0.2c-0.2,0.1-0.5,0.1-0.8,0.1
			c-0.4,0-0.7-0.1-1-0.2c-0.3-0.1-0.6-0.3-0.8-0.5s-0.4-0.5-0.5-0.8c-0.1-0.3-0.2-0.6-0.2-1c0-0.3,0.1-0.7,0.2-1
			c0.1-0.3,0.3-0.6,0.5-0.8c0.2-0.2,0.5-0.4,0.7-0.5s0.6-0.2,0.9-0.2c0.4,0,0.7,0.1,1,0.2c0.3,0.2,0.5,0.4,0.7,0.6
			c0.2,0.3,0.3,0.5,0.4,0.9s0.1,0.7,0.1,1h-3.7c0,0.2,0.1,0.4,0.1,0.6c0.1,0.2,0.2,0.3,0.3,0.5c0.1,0.1,0.3,0.2,0.5,0.3
			c0.2,0.1,0.4,0.1,0.6,0.1c0.4,0,0.7-0.1,1-0.2c0.3-0.1,0.4-0.3,0.6-0.4L257.1,66.6z M256.2,64.6c0-0.4-0.2-0.7-0.4-0.9
			c-0.2-0.3-0.5-0.4-1-0.4c-0.2,0-0.4,0-0.6,0.1s-0.3,0.2-0.4,0.3s-0.2,0.3-0.3,0.4c-0.1,0.2-0.1,0.3-0.1,0.5H256.2z"/>
		<path d="M258.6,67.3v-4.2c0-0.2,0-0.3,0-0.5h0.9l0,0.7c0.1-0.1,0.1-0.2,0.2-0.3s0.2-0.2,0.3-0.3c0.1-0.1,0.3-0.1,0.4-0.2
			c0.2-0.1,0.4-0.1,0.6-0.1c0.6,0,1.1,0.2,1.4,0.5c0.3,0.4,0.4,0.8,0.4,1.4v2.8h-0.9v-2.7c0-0.4-0.1-0.8-0.3-1s-0.5-0.3-0.8-0.3
			c-0.3,0-0.5,0.1-0.7,0.2c-0.2,0.1-0.3,0.2-0.4,0.4s-0.2,0.4-0.2,0.6c0,0.2-0.1,0.4-0.1,0.7v2.2H258.6z"/>
		<path d="M268.5,66.7c-0.2,0.2-0.5,0.4-0.8,0.6c-0.3,0.1-0.7,0.2-1.1,0.2c-0.4,0-0.7-0.1-1-0.2c-0.3-0.1-0.6-0.3-0.8-0.5
			c-0.2-0.2-0.4-0.5-0.5-0.8c-0.1-0.3-0.2-0.6-0.2-1c0-0.3,0.1-0.7,0.2-1c0.1-0.3,0.3-0.6,0.5-0.8c0.2-0.2,0.5-0.4,0.8-0.5
			s0.6-0.2,1-0.2c0.4,0,0.7,0.1,1,0.2c0.3,0.1,0.6,0.3,0.8,0.6l-0.6,0.6c-0.1-0.2-0.3-0.3-0.5-0.4c-0.2-0.1-0.4-0.2-0.7-0.2
			c-0.2,0-0.5,0-0.6,0.1c-0.2,0.1-0.4,0.2-0.5,0.4c-0.1,0.2-0.2,0.3-0.3,0.5s-0.1,0.4-0.1,0.6c0,0.2,0,0.4,0.1,0.6s0.2,0.4,0.3,0.5
			c0.1,0.2,0.3,0.3,0.5,0.4c0.2,0.1,0.4,0.1,0.6,0.1c0.3,0,0.5-0.1,0.7-0.2c0.2-0.1,0.4-0.2,0.5-0.4L268.5,66.7z"/>
		<path d="M274,66.6c-0.1,0.1-0.1,0.1-0.2,0.2c-0.1,0.1-0.2,0.2-0.4,0.3s-0.4,0.2-0.6,0.2c-0.2,0.1-0.5,0.1-0.8,0.1
			c-0.4,0-0.7-0.1-1-0.2c-0.3-0.1-0.6-0.3-0.8-0.5s-0.4-0.5-0.5-0.8c-0.1-0.3-0.2-0.6-0.2-1c0-0.3,0.1-0.7,0.2-1
			c0.1-0.3,0.3-0.6,0.5-0.8c0.2-0.2,0.5-0.4,0.7-0.5s0.6-0.2,0.9-0.2c0.4,0,0.7,0.1,1,0.2c0.3,0.2,0.5,0.4,0.7,0.6
			c0.2,0.3,0.3,0.5,0.4,0.9s0.1,0.7,0.1,1h-3.7c0,0.2,0.1,0.4,0.1,0.6c0.1,0.2,0.2,0.3,0.3,0.5c0.1,0.1,0.3,0.2,0.5,0.3
			c0.2,0.1,0.4,0.1,0.6,0.1c0.4,0,0.7-0.1,1-0.2c0.3-0.1,0.4-0.3,0.6-0.4L274,66.6z M273.2,64.6c0-0.4-0.2-0.7-0.4-0.9
			c-0.2-0.3-0.5-0.4-1-0.4c-0.2,0-0.4,0-0.6,0.1s-0.3,0.2-0.4,0.3s-0.2,0.3-0.3,0.4c-0.1,0.2-0.1,0.3-0.1,0.5H273.2z"/>
	</g>
</g>
<g>
	<g>
		<path d="M341.6,11.4h6.3v1.3H343v3.1h3.7V17H343v4.4h-1.4V11.4z"/>
		<path d="M348.9,11.6h1.5v1.5h-1.5V11.6z M348.9,14.4h1.4v7h-1.4V14.4z"/>
		<path d="M352.2,21.4v-6.3c0-0.2,0-0.4,0-0.7h1.3l0,1.1c0.1-0.1,0.2-0.3,0.3-0.4s0.3-0.3,0.5-0.4c0.2-0.1,0.4-0.2,0.6-0.3
			c0.2-0.1,0.5-0.1,0.9-0.1c0.2,0,0.3,0,0.4,0c0.1,0,0.2,0.1,0.4,0.1l-0.3,1.3c-0.2-0.1-0.4-0.1-0.7-0.1c-0.3,0-0.6,0.1-0.8,0.2
			c-0.2,0.1-0.5,0.3-0.6,0.5c-0.2,0.2-0.3,0.4-0.4,0.7c-0.1,0.3-0.2,0.5-0.2,0.8v3.7H352.2z"/>
		<path d="M357.8,19.6c0.2,0.3,0.6,0.5,0.9,0.6c0.4,0.2,0.8,0.2,1.2,0.2c0.5,0,0.8-0.1,1.1-0.2c0.3-0.1,0.5-0.4,0.5-0.7
			c0-0.2,0-0.3-0.1-0.4c-0.1-0.1-0.2-0.2-0.3-0.3c-0.2-0.1-0.4-0.2-0.6-0.2c-0.3-0.1-0.6-0.2-1-0.2c-0.3-0.1-0.5-0.1-0.8-0.2
			c-0.3-0.1-0.5-0.2-0.7-0.4s-0.4-0.4-0.5-0.6c-0.1-0.2-0.2-0.5-0.2-0.9c0-0.3,0.1-0.6,0.2-0.9c0.2-0.3,0.4-0.5,0.6-0.6
			c0.3-0.2,0.6-0.3,0.9-0.4c0.3-0.1,0.7-0.1,1-0.1c0.6,0,1.1,0.1,1.5,0.2c0.4,0.2,0.8,0.4,1.1,0.7l-0.7,0.9
			c-0.2-0.2-0.5-0.4-0.8-0.5c-0.3-0.1-0.7-0.2-1.1-0.2c-0.4,0-0.8,0.1-1,0.2c-0.3,0.1-0.4,0.4-0.4,0.7c0,0.3,0.2,0.5,0.5,0.7
			s0.8,0.3,1.4,0.4c0.3,0.1,0.6,0.2,0.9,0.3c0.3,0.1,0.5,0.2,0.8,0.4s0.4,0.4,0.5,0.6c0.1,0.2,0.2,0.5,0.2,0.9
			c0,0.4-0.1,0.7-0.2,0.9c-0.2,0.3-0.4,0.5-0.6,0.7c-0.3,0.2-0.6,0.3-0.9,0.4c-0.4,0.1-0.7,0.1-1.1,0.1c-1.3,0-2.3-0.4-3-1.1
			L357.8,19.6z"/>
		<path d="M365,15.5h-1.3v-1.1h1.3v-2.3h1.4v2.3h2v1.1h-2V19c0,0.6,0.1,0.9,0.3,1.2c0.2,0.2,0.4,0.3,0.7,0.3c0.3,0,0.5,0,0.6-0.1
			c0.2-0.1,0.3-0.2,0.5-0.4l0.6,0.8c-0.3,0.3-0.6,0.5-0.9,0.6c-0.3,0.1-0.7,0.2-1.1,0.2c-0.7,0-1.3-0.2-1.6-0.6
			c-0.3-0.4-0.5-1-0.5-1.9V15.5z"/>
		<path d="M376.1,11.4h1.5l3.9,10h-1.6l-1-2.8h-4.1l-1,2.8h-1.5L376.1,11.4z M378.4,17.4l-1.6-4.4l-1.6,4.4H378.4z"/>
		<path d="M382.6,11.6h1.5v1.5h-1.5V11.6z M382.7,14.4h1.4v7h-1.4V14.4z"/>
		<path d="M391,20.5c-0.1,0.1-0.1,0.2-0.2,0.3c-0.1,0.1-0.3,0.2-0.5,0.4c-0.2,0.1-0.4,0.2-0.7,0.3c-0.3,0.1-0.6,0.1-0.9,0.1
			c-0.4,0-0.9-0.1-1.2-0.3c-0.4-0.2-0.7-0.4-1-0.7c-0.3-0.3-0.5-0.7-0.7-1.1c-0.2-0.4-0.2-0.9-0.2-1.5c0-0.7,0.1-1.2,0.3-1.7
			c0.2-0.5,0.5-0.9,0.9-1.2c0.4-0.3,0.7-0.5,1.2-0.7c0.4-0.1,0.8-0.2,1.2-0.2c0.5,0,0.9,0.1,1.2,0.2c0.3,0.1,0.5,0.2,0.6,0.3v-3.3
			h1.4v9.3c0,0.2,0,0.5,0,0.7H391L391,20.5z M391,16c-0.1-0.1-0.3-0.2-0.6-0.3c-0.3-0.1-0.7-0.2-1.2-0.2c-0.3,0-0.6,0.1-0.9,0.2
			c-0.3,0.1-0.5,0.3-0.7,0.5c-0.2,0.2-0.4,0.5-0.5,0.8c-0.1,0.3-0.2,0.7-0.2,1.1c0,0.3,0,0.6,0.1,0.9c0.1,0.3,0.2,0.6,0.4,0.8
			c0.2,0.2,0.4,0.4,0.6,0.5c0.3,0.1,0.6,0.2,0.9,0.2s0.7-0.1,0.9-0.2c0.2-0.1,0.5-0.3,0.6-0.5c0.2-0.2,0.3-0.4,0.3-0.6
			c0.1-0.2,0.1-0.5,0.1-0.7V16z"/>
		<path d="M341.6,27.8h1.4V32h5.5v-4.2h1.4v10h-1.4v-4.5H343v4.5h-1.4V27.8z"/>
		<path d="M358.4,36.8c-0.1,0.1-0.2,0.2-0.4,0.3c-0.2,0.1-0.4,0.3-0.6,0.4c-0.3,0.1-0.6,0.2-0.9,0.3c-0.3,0.1-0.7,0.1-1.2,0.1
			c-0.5,0-1-0.1-1.5-0.3c-0.5-0.2-0.8-0.4-1.2-0.8c-0.3-0.3-0.6-0.7-0.7-1.2c-0.2-0.5-0.3-1-0.3-1.5c0-0.5,0.1-1,0.3-1.4
			c0.2-0.4,0.4-0.8,0.7-1.2c0.3-0.3,0.7-0.6,1.1-0.8c0.4-0.2,0.9-0.3,1.4-0.3c0.6,0,1.1,0.1,1.6,0.3c0.4,0.2,0.8,0.5,1.1,0.9
			c0.3,0.4,0.5,0.8,0.6,1.3s0.2,1,0.2,1.5h-5.5c0,0.3,0.1,0.6,0.2,0.9c0.1,0.3,0.3,0.5,0.5,0.7c0.2,0.2,0.5,0.3,0.7,0.5
			c0.3,0.1,0.6,0.2,0.9,0.2c0.6,0,1.1-0.1,1.5-0.3c0.4-0.2,0.7-0.4,0.8-0.6L358.4,36.8z M357.2,33.8c0-0.5-0.2-1-0.6-1.4
			c-0.3-0.4-0.8-0.6-1.4-0.6c-0.3,0-0.6,0.1-0.9,0.2c-0.3,0.1-0.5,0.3-0.7,0.4c-0.2,0.2-0.3,0.4-0.4,0.6c-0.1,0.2-0.2,0.5-0.2,0.7
			H357.2z"/>
		<path d="M364.5,37c-0.3,0.4-0.6,0.6-1,0.8c-0.4,0.2-0.9,0.3-1.3,0.3c-0.3,0-0.6,0-0.9-0.1c-0.3-0.1-0.5-0.2-0.8-0.4
			c-0.2-0.2-0.4-0.4-0.6-0.7c-0.1-0.3-0.2-0.6-0.2-1c0-0.8,0.3-1.4,0.8-1.8c0.5-0.5,1.3-0.7,2.3-0.7c0.2,0,0.3,0,0.5,0
			c0.2,0,0.4,0,0.5,0c0.2,0,0.3,0,0.4,0c0.1,0,0.2,0,0.3,0v-0.3c0-0.5-0.2-0.9-0.5-1.1c-0.3-0.2-0.7-0.3-1.3-0.3
			c-0.5,0-1,0.1-1.3,0.2c-0.3,0.1-0.6,0.3-0.8,0.4l-0.6-0.9c0.1-0.1,0.3-0.2,0.4-0.3c0.2-0.1,0.4-0.2,0.6-0.3
			c0.2-0.1,0.5-0.2,0.8-0.2c0.3-0.1,0.6-0.1,1-0.1c0.9,0,1.6,0.2,2.1,0.7c0.5,0.4,0.8,1.1,0.8,1.9v4.1c0,0.2,0,0.4,0,0.6h-1.3
			L364.5,37z M364.5,34.6c0,0-0.1,0-0.2,0c-0.1,0-0.2,0-0.4,0s-0.3,0-0.5,0s-0.3,0-0.5,0c-0.4,0-0.7,0-0.9,0.1
			c-0.2,0.1-0.4,0.2-0.6,0.3c-0.1,0.1-0.2,0.3-0.3,0.5c-0.1,0.2-0.1,0.3-0.1,0.5c0,0.4,0.1,0.7,0.4,0.9c0.3,0.2,0.6,0.3,1.1,0.3
			c0.3,0,0.5,0,0.7-0.1c0.2-0.1,0.4-0.2,0.6-0.4c0.2-0.2,0.3-0.3,0.4-0.5s0.2-0.4,0.2-0.6V34.6z"/>
		<path d="M367.6,27.8h1.4v10h-1.4V27.8z"/>
		<path d="M371.5,32h-1.3v-1.1h1.3v-2.3h1.4v2.3h2V32h-2v3.4c0,0.6,0.1,0.9,0.3,1.2c0.2,0.2,0.4,0.3,0.7,0.3c0.3,0,0.5,0,0.6-0.1
			c0.2-0.1,0.3-0.2,0.5-0.4l0.6,0.8c-0.3,0.3-0.6,0.5-0.9,0.6c-0.3,0.1-0.7,0.2-1.1,0.2c-0.7,0-1.3-0.2-1.6-0.6
			c-0.3-0.4-0.5-1-0.5-1.9V32z"/>
		<path d="M376.6,27.8h1.3v4.1c0.1-0.1,0.2-0.3,0.3-0.4c0.1-0.1,0.3-0.3,0.5-0.4c0.2-0.1,0.4-0.2,0.7-0.3c0.3-0.1,0.5-0.1,0.9-0.1
			c0.9,0,1.6,0.3,2,0.8c0.4,0.5,0.7,1.3,0.7,2.2v4.2h-1.4v-4.1c0-0.7-0.1-1.1-0.4-1.4c-0.3-0.3-0.7-0.5-1.2-0.5
			c-0.4,0-0.7,0.1-1,0.2c-0.3,0.2-0.5,0.4-0.6,0.6c-0.2,0.3-0.3,0.5-0.3,0.9c-0.1,0.3-0.1,0.7-0.1,1v3.3h-1.4V27.8z"/>
		<path d="M393.2,36.8c-0.4,0.4-0.8,0.7-1.2,0.9c-0.5,0.3-1,0.4-1.7,0.4c-0.5,0-1-0.1-1.4-0.2c-0.4-0.1-0.7-0.3-1-0.6
			c-0.3-0.3-0.5-0.6-0.6-0.9c-0.1-0.3-0.2-0.7-0.2-1.1c0-0.6,0.2-1.2,0.5-1.7c0.3-0.5,0.9-1,1.6-1.5l-0.2-0.2
			c-0.2-0.3-0.4-0.6-0.6-0.9s-0.2-0.7-0.2-1c0-0.3,0.1-0.6,0.2-0.9c0.1-0.3,0.3-0.5,0.5-0.8c0.2-0.2,0.5-0.4,0.8-0.5
			c0.3-0.1,0.7-0.2,1.1-0.2c0.4,0,0.7,0,1,0.1c0.3,0.1,0.5,0.2,0.7,0.4c0.2,0.2,0.4,0.3,0.5,0.5c0.1,0.2,0.3,0.4,0.4,0.6l-1,0.6
			c-0.3-0.5-0.5-0.7-0.7-0.9c-0.2-0.1-0.5-0.2-0.7-0.2c-0.4,0-0.8,0.1-1,0.3c-0.2,0.2-0.3,0.5-0.3,0.8c0,0.3,0.1,0.5,0.2,0.8
			c0.1,0.3,0.3,0.5,0.6,0.8l2.7,3.2l1.3-1.7l1,0.8l-1.5,1.9l1.8,2.1h-1.7L393.2,36.8z M390,33.1c-0.5,0.4-0.9,0.7-1.1,1
			c-0.2,0.3-0.3,0.7-0.3,1.2c0,0.5,0.2,0.8,0.5,1.1c0.3,0.3,0.7,0.5,1.3,0.5c0.5,0,0.9-0.1,1.2-0.3s0.6-0.5,0.9-0.7L390,33.1z"/>
		<path d="M400.5,35.4c0.1,0.2,0.3,0.3,0.5,0.5c0.2,0.2,0.4,0.3,0.6,0.4c0.2,0.1,0.5,0.2,0.7,0.3c0.3,0.1,0.6,0.1,0.9,0.1
			c0.7,0,1.2-0.2,1.6-0.5s0.6-0.7,0.6-1.2c0-0.6-0.2-1-0.6-1.2c-0.4-0.3-1-0.5-1.8-0.7c-0.4-0.1-0.8-0.2-1.2-0.4
			c-0.4-0.2-0.7-0.4-0.9-0.6c-0.3-0.2-0.5-0.5-0.6-0.8c-0.1-0.3-0.2-0.7-0.2-1.1c0-0.4,0.1-0.7,0.2-1.1c0.1-0.3,0.4-0.6,0.6-0.9
			c0.3-0.3,0.6-0.5,1.1-0.6c0.4-0.2,0.9-0.2,1.5-0.2c0.5,0,0.9,0.1,1.3,0.2c0.4,0.1,0.7,0.2,0.9,0.4s0.5,0.3,0.6,0.5
			c0.2,0.2,0.3,0.3,0.3,0.4l-1,0.9c-0.1-0.1-0.2-0.2-0.3-0.3s-0.3-0.2-0.5-0.3c-0.2-0.1-0.4-0.2-0.6-0.3c-0.2-0.1-0.5-0.1-0.9-0.1
			s-0.6,0-0.8,0.1c-0.2,0.1-0.4,0.2-0.6,0.3c-0.2,0.1-0.3,0.3-0.3,0.5c-0.1,0.2-0.1,0.3-0.1,0.5c0,0.3,0.1,0.5,0.2,0.6
			c0.1,0.2,0.3,0.3,0.5,0.5c0.2,0.1,0.4,0.3,0.7,0.3s0.6,0.2,1,0.3c0.4,0.1,0.7,0.2,1.1,0.4c0.4,0.1,0.7,0.3,1,0.6
			c0.3,0.2,0.5,0.5,0.7,0.9c0.2,0.4,0.2,0.8,0.2,1.3c0,0.4-0.1,0.8-0.3,1.2c-0.2,0.4-0.4,0.7-0.7,0.9c-0.3,0.3-0.7,0.5-1.1,0.6
			c-0.4,0.1-0.9,0.2-1.4,0.2c-0.5,0-0.9-0.1-1.3-0.2c-0.4-0.1-0.7-0.3-1.1-0.4c-0.3-0.2-0.6-0.4-0.8-0.6c-0.2-0.2-0.4-0.4-0.6-0.6
			L400.5,35.4z"/>
		<path d="M413,37c-0.3,0.4-0.6,0.6-1,0.8c-0.4,0.2-0.9,0.3-1.3,0.3c-0.3,0-0.6,0-0.9-0.1c-0.3-0.1-0.5-0.2-0.8-0.4
			c-0.2-0.2-0.4-0.4-0.6-0.7c-0.1-0.3-0.2-0.6-0.2-1c0-0.8,0.3-1.4,0.8-1.8c0.5-0.5,1.3-0.7,2.3-0.7c0.2,0,0.3,0,0.5,0
			c0.2,0,0.4,0,0.5,0c0.2,0,0.3,0,0.4,0c0.1,0,0.2,0,0.3,0v-0.3c0-0.5-0.2-0.9-0.5-1.1c-0.3-0.2-0.7-0.3-1.3-0.3
			c-0.5,0-1,0.1-1.3,0.2c-0.3,0.1-0.6,0.3-0.8,0.4l-0.6-0.9c0.1-0.1,0.3-0.2,0.4-0.3c0.2-0.1,0.4-0.2,0.6-0.3
			c0.2-0.1,0.5-0.2,0.8-0.2c0.3-0.1,0.6-0.1,1-0.1c0.9,0,1.6,0.2,2.1,0.7c0.5,0.4,0.8,1.1,0.8,1.9v4.1c0,0.2,0,0.4,0,0.6H413L413,37
			z M413,34.6c0,0-0.1,0-0.2,0c-0.1,0-0.2,0-0.4,0s-0.3,0-0.5,0s-0.3,0-0.5,0c-0.4,0-0.7,0-0.9,0.1c-0.2,0.1-0.4,0.2-0.6,0.3
			s-0.2,0.3-0.3,0.5c-0.1,0.2-0.1,0.3-0.1,0.5c0,0.4,0.1,0.7,0.4,0.9c0.3,0.2,0.6,0.3,1.1,0.3c0.3,0,0.5,0,0.7-0.1
			c0.2-0.1,0.4-0.2,0.6-0.4c0.2-0.2,0.3-0.3,0.4-0.5c0.1-0.2,0.2-0.4,0.2-0.6V34.6z"/>
		<path d="M416.7,32h-1.3v-1.1h1.3v-0.6c0-0.5,0.1-0.9,0.2-1.2c0.1-0.3,0.3-0.6,0.5-0.9c0.2-0.2,0.5-0.4,0.8-0.5
			c0.3-0.1,0.6-0.2,0.9-0.2c0.4,0,0.7,0.1,1.1,0.2c0.4,0.1,0.7,0.3,1,0.6l-0.7,0.9c-0.4-0.3-0.8-0.5-1.2-0.5c-0.4,0-0.7,0.1-0.9,0.4
			c-0.2,0.3-0.4,0.7-0.4,1.3v0.5h2V32h-2v5.9h-1.4V32z"/>
		<path d="M427.2,36.8c-0.1,0.1-0.2,0.2-0.4,0.3c-0.2,0.1-0.4,0.3-0.6,0.4c-0.3,0.1-0.6,0.2-0.9,0.3c-0.3,0.1-0.7,0.1-1.2,0.1
			c-0.5,0-1-0.1-1.5-0.3c-0.5-0.2-0.8-0.4-1.2-0.8c-0.3-0.3-0.6-0.7-0.7-1.2c-0.2-0.5-0.3-1-0.3-1.5c0-0.5,0.1-1,0.3-1.4
			c0.2-0.4,0.4-0.8,0.7-1.2c0.3-0.3,0.7-0.6,1.1-0.8c0.4-0.2,0.9-0.3,1.4-0.3c0.6,0,1.1,0.1,1.6,0.3c0.4,0.2,0.8,0.5,1.1,0.9
			c0.3,0.4,0.5,0.8,0.6,1.3c0.1,0.5,0.2,1,0.2,1.5h-5.5c0,0.3,0.1,0.6,0.2,0.9c0.1,0.3,0.3,0.5,0.5,0.7c0.2,0.2,0.5,0.3,0.7,0.5
			c0.3,0.1,0.6,0.2,0.9,0.2c0.6,0,1.1-0.1,1.5-0.3c0.4-0.2,0.7-0.4,0.8-0.6L427.2,36.8z M426,33.8c0-0.5-0.2-1-0.6-1.4
			c-0.3-0.4-0.8-0.6-1.4-0.6c-0.3,0-0.6,0.1-0.9,0.2c-0.3,0.1-0.5,0.3-0.7,0.4c-0.2,0.2-0.3,0.4-0.4,0.6c-0.1,0.2-0.2,0.5-0.2,0.7
			H426z"/>
		<path d="M429.5,32h-1.3v-1.1h1.3v-2.3h1.4v2.3h2V32h-2v3.4c0,0.6,0.1,0.9,0.3,1.2c0.2,0.2,0.4,0.3,0.7,0.3c0.3,0,0.5,0,0.6-0.1
			c0.2-0.1,0.3-0.2,0.5-0.4l0.6,0.8c-0.3,0.3-0.6,0.5-0.9,0.6c-0.3,0.1-0.7,0.2-1.1,0.2c-0.7,0-1.3-0.2-1.6-0.6
			c-0.3-0.4-0.5-1-0.5-1.9V32z"/>
		<path d="M434.5,39.6c0.1,0.1,0.2,0.2,0.3,0.2c0.1,0.1,0.3,0.1,0.5,0.1c0.2,0,0.3,0,0.4-0.1c0.1-0.1,0.2-0.2,0.3-0.3
			c0.1-0.1,0.2-0.3,0.3-0.5c0.1-0.2,0.2-0.4,0.3-0.7l0.2-0.5l-3.1-6.9h1.6l2.3,5.3l2-5.3h1.5l-2.8,6.8c-0.1,0.3-0.3,0.7-0.4,1.1
			c-0.1,0.4-0.3,0.8-0.5,1.1c-0.2,0.3-0.4,0.6-0.7,0.9c-0.3,0.2-0.7,0.3-1.1,0.3c-0.4,0-0.6,0-0.9-0.1c-0.2-0.1-0.5-0.2-0.6-0.4
			L434.5,39.6z"/>
		<path d="M341.6,44.3h6.3v1.3H343v3.1h3.7v1.3H343v4.4h-1.4V44.3z"/>
		<path d="M351.7,54.5c-0.5,0-1-0.1-1.5-0.3c-0.5-0.2-0.8-0.5-1.2-0.8c-0.3-0.3-0.6-0.7-0.8-1.2s-0.3-0.9-0.3-1.4
			c0-0.5,0.1-1,0.3-1.4c0.2-0.4,0.4-0.8,0.8-1.2c0.3-0.3,0.7-0.6,1.2-0.8c0.5-0.2,0.9-0.3,1.5-0.3c0.5,0,1,0.1,1.5,0.3
			c0.5,0.2,0.8,0.5,1.2,0.8c0.3,0.3,0.6,0.7,0.8,1.2c0.2,0.4,0.3,0.9,0.3,1.4c0,0.5-0.1,1-0.3,1.4c-0.2,0.4-0.4,0.8-0.8,1.2
			c-0.3,0.3-0.7,0.6-1.2,0.8C352.7,54.4,352.2,54.5,351.7,54.5z M351.7,53.4c0.4,0,0.7-0.1,1-0.2c0.3-0.1,0.5-0.3,0.7-0.6
			s0.4-0.5,0.5-0.8c0.1-0.3,0.2-0.6,0.2-0.9c0-0.3-0.1-0.6-0.2-0.9c-0.1-0.3-0.3-0.6-0.5-0.8c-0.2-0.2-0.5-0.4-0.7-0.6
			c-0.3-0.1-0.6-0.2-1-0.2c-0.4,0-0.7,0.1-1,0.2c-0.3,0.1-0.5,0.3-0.7,0.6c-0.2,0.2-0.4,0.5-0.5,0.8c-0.1,0.3-0.2,0.6-0.2,0.9
			c0,0.3,0.1,0.6,0.2,0.9c0.1,0.3,0.3,0.6,0.5,0.8c0.2,0.2,0.5,0.4,0.7,0.6C351,53.3,351.3,53.4,351.7,53.4z"/>
		<path d="M360.3,54.5c-0.5,0-1-0.1-1.5-0.3c-0.5-0.2-0.8-0.5-1.2-0.8c-0.3-0.3-0.6-0.7-0.8-1.2c-0.2-0.4-0.3-0.9-0.3-1.4
			c0-0.5,0.1-1,0.3-1.4c0.2-0.4,0.4-0.8,0.8-1.2c0.3-0.3,0.7-0.6,1.2-0.8c0.5-0.2,0.9-0.3,1.5-0.3c0.5,0,1,0.1,1.5,0.3
			c0.5,0.2,0.8,0.5,1.2,0.8c0.3,0.3,0.6,0.7,0.8,1.2c0.2,0.4,0.3,0.9,0.3,1.4c0,0.5-0.1,1-0.3,1.4c-0.2,0.4-0.4,0.8-0.8,1.2
			c-0.3,0.3-0.7,0.6-1.2,0.8C361.3,54.4,360.8,54.5,360.3,54.5z M360.3,53.4c0.4,0,0.7-0.1,1-0.2c0.3-0.1,0.5-0.3,0.7-0.6
			c0.2-0.2,0.4-0.5,0.5-0.8c0.1-0.3,0.2-0.6,0.2-0.9c0-0.3-0.1-0.6-0.2-0.9c-0.1-0.3-0.3-0.6-0.5-0.8c-0.2-0.2-0.5-0.4-0.7-0.6
			c-0.3-0.1-0.6-0.2-1-0.2c-0.4,0-0.7,0.1-1,0.2c-0.3,0.1-0.5,0.3-0.7,0.6c-0.2,0.2-0.4,0.5-0.5,0.8c-0.1,0.3-0.2,0.6-0.2,0.9
			c0,0.3,0.1,0.6,0.2,0.9c0.1,0.3,0.3,0.6,0.5,0.8c0.2,0.2,0.5,0.4,0.7,0.6C359.6,53.3,359.9,53.4,360.3,53.4z"/>
		<path d="M370.6,53.4c-0.1,0.1-0.1,0.2-0.2,0.3c-0.1,0.1-0.3,0.2-0.5,0.4c-0.2,0.1-0.4,0.2-0.7,0.3s-0.6,0.1-0.9,0.1
			c-0.4,0-0.9-0.1-1.2-0.3c-0.4-0.2-0.7-0.4-1-0.7c-0.3-0.3-0.5-0.7-0.7-1.1c-0.2-0.4-0.2-0.9-0.2-1.5c0-0.7,0.1-1.2,0.3-1.7
			c0.2-0.5,0.5-0.9,0.9-1.2c0.4-0.3,0.7-0.5,1.2-0.7c0.4-0.1,0.8-0.2,1.2-0.2c0.5,0,0.9,0.1,1.2,0.2c0.3,0.1,0.5,0.2,0.6,0.3v-3.3
			h1.4v9.3c0,0.2,0,0.5,0,0.7h-1.3L370.6,53.4z M370.6,48.9c-0.1-0.1-0.3-0.2-0.6-0.3c-0.3-0.1-0.7-0.2-1.2-0.2
			c-0.3,0-0.6,0.1-0.9,0.2c-0.3,0.1-0.5,0.3-0.7,0.5c-0.2,0.2-0.4,0.5-0.5,0.8c-0.1,0.3-0.2,0.7-0.2,1.1c0,0.3,0,0.6,0.1,0.9
			s0.2,0.6,0.4,0.8c0.2,0.2,0.4,0.4,0.6,0.5c0.3,0.1,0.6,0.2,0.9,0.2s0.7-0.1,0.9-0.2c0.2-0.1,0.5-0.3,0.6-0.5
			c0.2-0.2,0.3-0.4,0.3-0.6c0.1-0.2,0.1-0.5,0.1-0.7V48.9z"/>
		<path d="M377.2,51.9c0.1,0.2,0.3,0.3,0.5,0.5c0.2,0.2,0.4,0.3,0.6,0.4c0.2,0.1,0.5,0.2,0.7,0.3c0.3,0.1,0.6,0.1,0.9,0.1
			c0.7,0,1.2-0.2,1.6-0.5c0.4-0.3,0.6-0.7,0.6-1.2c0-0.6-0.2-1-0.6-1.2c-0.4-0.3-1-0.5-1.8-0.7c-0.4-0.1-0.8-0.2-1.2-0.4
			c-0.4-0.2-0.7-0.4-0.9-0.6c-0.3-0.2-0.5-0.5-0.6-0.8c-0.1-0.3-0.2-0.7-0.2-1.1c0-0.4,0.1-0.7,0.2-1.1c0.1-0.3,0.4-0.6,0.6-0.9
			c0.3-0.3,0.6-0.5,1.1-0.6c0.4-0.2,0.9-0.2,1.5-0.2c0.5,0,0.9,0.1,1.3,0.2c0.4,0.1,0.7,0.2,0.9,0.4c0.3,0.2,0.5,0.3,0.6,0.5
			c0.2,0.2,0.3,0.3,0.3,0.4l-1,0.9c-0.1-0.1-0.2-0.2-0.3-0.3s-0.3-0.2-0.5-0.3c-0.2-0.1-0.4-0.2-0.6-0.3c-0.2-0.1-0.5-0.1-0.9-0.1
			c-0.3,0-0.6,0-0.8,0.1c-0.2,0.1-0.4,0.2-0.6,0.3c-0.2,0.1-0.3,0.3-0.3,0.5c-0.1,0.2-0.1,0.3-0.1,0.5c0,0.3,0.1,0.5,0.2,0.6
			c0.1,0.2,0.3,0.3,0.5,0.5c0.2,0.1,0.4,0.3,0.7,0.3s0.6,0.2,1,0.3c0.4,0.1,0.7,0.2,1.1,0.4c0.4,0.1,0.7,0.3,1,0.6
			c0.3,0.2,0.5,0.5,0.7,0.9c0.2,0.4,0.2,0.8,0.2,1.3c0,0.4-0.1,0.8-0.3,1.2c-0.2,0.4-0.4,0.7-0.7,0.9c-0.3,0.3-0.7,0.5-1.1,0.6
			c-0.4,0.1-0.9,0.2-1.4,0.2c-0.5,0-0.9-0.1-1.3-0.2c-0.4-0.1-0.7-0.3-1.1-0.4c-0.3-0.2-0.6-0.4-0.8-0.6c-0.2-0.2-0.4-0.4-0.6-0.6
			L377.2,51.9z"/>
		<path d="M389.7,53.5c-0.3,0.4-0.6,0.6-1,0.8c-0.4,0.2-0.9,0.3-1.3,0.3c-0.3,0-0.6,0-0.9-0.1c-0.3-0.1-0.5-0.2-0.8-0.4
			c-0.2-0.2-0.4-0.4-0.6-0.7c-0.1-0.3-0.2-0.6-0.2-1c0-0.8,0.3-1.4,0.8-1.8c0.5-0.5,1.3-0.7,2.3-0.7c0.2,0,0.3,0,0.5,0
			c0.2,0,0.4,0,0.5,0c0.2,0,0.3,0,0.4,0c0.1,0,0.2,0,0.3,0v-0.3c0-0.5-0.2-0.9-0.5-1.1c-0.3-0.2-0.7-0.3-1.3-0.3
			c-0.5,0-1,0.1-1.3,0.2c-0.3,0.1-0.6,0.3-0.8,0.4l-0.6-0.9c0.1-0.1,0.3-0.2,0.4-0.3c0.2-0.1,0.4-0.2,0.6-0.3
			c0.2-0.1,0.5-0.2,0.8-0.2c0.3-0.1,0.6-0.1,1-0.1c0.9,0,1.6,0.2,2.1,0.7c0.5,0.4,0.8,1.1,0.8,1.9v4.1c0,0.2,0,0.4,0,0.6h-1.3
			L389.7,53.5z M389.6,51c0,0-0.1,0-0.2,0c-0.1,0-0.2,0-0.4,0c-0.2,0-0.3,0-0.5,0c-0.2,0-0.3,0-0.5,0c-0.4,0-0.7,0-0.9,0.1
			c-0.2,0.1-0.4,0.2-0.6,0.3c-0.1,0.1-0.2,0.3-0.3,0.5c-0.1,0.2-0.1,0.3-0.1,0.5c0,0.4,0.1,0.7,0.4,0.9c0.3,0.2,0.6,0.3,1.1,0.3
			c0.3,0,0.5,0,0.7-0.1c0.2-0.1,0.4-0.2,0.6-0.4c0.2-0.2,0.3-0.3,0.4-0.5s0.2-0.4,0.2-0.6V51z"/>
		<path d="M393.3,48.5h-1.3v-1.1h1.3v-0.6c0-0.5,0.1-0.9,0.2-1.2c0.1-0.3,0.3-0.6,0.5-0.9c0.2-0.2,0.5-0.4,0.8-0.5
			c0.3-0.1,0.6-0.2,0.9-0.2c0.4,0,0.7,0.1,1.1,0.2c0.4,0.1,0.7,0.3,1,0.6l-0.7,0.9c-0.4-0.3-0.8-0.5-1.2-0.5c-0.4,0-0.7,0.1-0.9,0.4
			c-0.2,0.3-0.4,0.7-0.4,1.3v0.5h2v1.1h-2v5.9h-1.4V48.5z"/>
		<path d="M403.8,53.3c-0.1,0.1-0.2,0.2-0.4,0.3c-0.2,0.1-0.4,0.3-0.6,0.4c-0.3,0.1-0.6,0.2-0.9,0.3c-0.3,0.1-0.7,0.1-1.2,0.1
			c-0.5,0-1-0.1-1.5-0.3c-0.5-0.2-0.8-0.4-1.2-0.8c-0.3-0.3-0.6-0.7-0.7-1.2c-0.2-0.5-0.3-1-0.3-1.5c0-0.5,0.1-1,0.3-1.4
			c0.2-0.4,0.4-0.8,0.7-1.2s0.7-0.6,1.1-0.8c0.4-0.2,0.9-0.3,1.4-0.3c0.6,0,1.1,0.1,1.6,0.3c0.4,0.2,0.8,0.5,1.1,0.9
			c0.3,0.4,0.5,0.8,0.6,1.3c0.1,0.5,0.2,1,0.2,1.5h-5.5c0,0.3,0.1,0.6,0.2,0.9c0.1,0.3,0.3,0.5,0.5,0.7c0.2,0.2,0.5,0.3,0.7,0.5
			c0.3,0.1,0.6,0.2,0.9,0.2c0.6,0,1.1-0.1,1.5-0.3c0.4-0.2,0.7-0.4,0.8-0.6L403.8,53.3z M402.6,50.2c0-0.5-0.2-1-0.6-1.4
			c-0.3-0.4-0.8-0.6-1.4-0.6c-0.3,0-0.6,0.1-0.9,0.2c-0.3,0.1-0.5,0.3-0.7,0.4c-0.2,0.2-0.3,0.4-0.4,0.6c-0.1,0.2-0.2,0.5-0.2,0.7
			H402.6z"/>
		<path d="M406.1,48.5h-1.3v-1.1h1.3V45h1.4v2.3h2v1.1h-2v3.4c0,0.6,0.1,0.9,0.3,1.2c0.2,0.2,0.4,0.3,0.7,0.3c0.3,0,0.5,0,0.6-0.1
			c0.2-0.1,0.3-0.2,0.5-0.4l0.6,0.8c-0.3,0.3-0.6,0.5-0.9,0.6c-0.3,0.1-0.7,0.2-1.1,0.2c-0.7,0-1.3-0.2-1.6-0.6s-0.5-1-0.5-1.9V48.5
			z"/>
		<path d="M411.1,56.1c0.1,0.1,0.2,0.2,0.3,0.2c0.1,0.1,0.3,0.1,0.5,0.1c0.2,0,0.3,0,0.4-0.1c0.1-0.1,0.2-0.2,0.3-0.3
			c0.1-0.1,0.2-0.3,0.3-0.5c0.1-0.2,0.2-0.4,0.3-0.7l0.2-0.5l-3.1-6.9h1.6l2.3,5.3l2-5.3h1.5l-2.8,6.8c-0.1,0.3-0.3,0.7-0.4,1.1
			c-0.1,0.4-0.3,0.8-0.5,1.1c-0.2,0.3-0.4,0.6-0.7,0.9c-0.3,0.2-0.7,0.3-1.1,0.3c-0.4,0-0.6,0-0.9-0.1c-0.2-0.1-0.5-0.2-0.6-0.4
			L411.1,56.1z"/>
		<path d="M344,62.8h-3.3v-2h8.8v2h-3.2v8H344V62.8z"/>
		<path d="M349,63.7h2.1l0.1,0.9c0.2-0.2,0.4-0.5,0.7-0.7c0.3-0.2,0.7-0.3,1.2-0.3c0.2,0,0.4,0,0.5,0c0.1,0,0.3,0.1,0.4,0.1
			l-0.3,1.9c-0.2-0.1-0.5-0.1-0.8-0.1c-0.5,0-0.9,0.2-1.2,0.5c-0.3,0.3-0.5,0.7-0.5,1.3v3.5H349V63.7z"/>
		<path d="M358.9,70.1c-0.2,0.3-0.5,0.5-0.9,0.6c-0.4,0.2-0.8,0.2-1.2,0.2c-0.3,0-0.5,0-0.8-0.1c-0.3-0.1-0.5-0.2-0.8-0.4
			c-0.2-0.2-0.4-0.4-0.6-0.7c-0.2-0.3-0.2-0.6-0.2-1.1c0-0.4,0.1-0.8,0.2-1.1c0.2-0.3,0.4-0.6,0.7-0.8c0.3-0.2,0.6-0.4,1-0.5
			c0.4-0.1,0.8-0.2,1.3-0.2c0.3,0,0.5,0,0.8,0c0.3,0,0.4,0,0.5,0v-0.2c0-0.2,0-0.3-0.1-0.5c-0.1-0.1-0.2-0.2-0.3-0.3
			c-0.1-0.1-0.3-0.1-0.4-0.2c-0.2,0-0.3-0.1-0.5-0.1c-0.5,0-0.9,0.1-1.2,0.2c-0.3,0.1-0.6,0.3-0.8,0.4l-0.9-1.3
			c0.2-0.1,0.3-0.2,0.5-0.3c0.2-0.1,0.4-0.2,0.7-0.3c0.3-0.1,0.6-0.2,0.9-0.2c0.3-0.1,0.7-0.1,1.1-0.1c1.1,0,1.9,0.3,2.4,0.9
			c0.5,0.6,0.8,1.4,0.8,2.3v4.1h-2L358.9,70.1z M358.9,67.7c-0.1,0-0.1,0-0.3,0c-0.1,0-0.3,0-0.5,0c-0.6,0-1,0.1-1.3,0.3
			c-0.3,0.2-0.4,0.4-0.4,0.7c0,0.6,0.4,0.9,1.1,0.9c0.2,0,0.3,0,0.5-0.1c0.2-0.1,0.3-0.1,0.4-0.2c0.1-0.1,0.2-0.2,0.3-0.4
			c0.1-0.2,0.1-0.3,0.1-0.5V67.7z"/>
		<path d="M362.5,60.8h2.3v1.9h-2.3V60.8z M362.6,63.7h2.2v7.1h-2.2V63.7z"/>
		<path d="M366.4,63.7h2.1l0.1,0.8c0.2-0.3,0.5-0.5,0.9-0.7c0.4-0.2,0.8-0.3,1.2-0.3c0.8,0,1.5,0.2,1.9,0.7c0.5,0.5,0.7,1.2,0.7,2.1
			v4.4h-2.2v-4.1c0-0.4-0.1-0.7-0.3-0.9c-0.2-0.2-0.5-0.3-0.8-0.3c-0.2,0-0.5,0-0.6,0.1c-0.2,0.1-0.3,0.2-0.5,0.3s-0.2,0.3-0.3,0.5
			c-0.1,0.2-0.1,0.4-0.1,0.6v3.8h-2.2V63.7z"/>
		<path d="M374.8,60.8h2.3v1.9h-2.3V60.8z M374.9,63.7h2.2v7.1h-2.2V63.7z"/>
		<path d="M378.8,63.7h2.1l0.1,0.8c0.2-0.3,0.5-0.5,0.9-0.7c0.4-0.2,0.8-0.3,1.2-0.3c0.8,0,1.5,0.2,1.9,0.7c0.5,0.5,0.7,1.2,0.7,2.1
			v4.4h-2.2v-4.1c0-0.4-0.1-0.7-0.3-0.9c-0.2-0.2-0.5-0.3-0.8-0.3c-0.2,0-0.5,0-0.6,0.1c-0.2,0.1-0.3,0.2-0.5,0.3s-0.2,0.3-0.3,0.5
			c-0.1,0.2-0.1,0.4-0.1,0.6v3.8h-2.2V63.7z"/>
		<path d="M388.4,71.7c0.3,0.2,0.6,0.3,0.9,0.4s0.7,0.1,1,0.1c0.5,0,0.9-0.1,1.2-0.4c0.3-0.3,0.4-0.7,0.4-1.2v-0.5
			c-0.5,0.4-1.1,0.6-1.8,0.6c-0.5,0-1-0.1-1.3-0.2c-0.4-0.2-0.7-0.4-1-0.7c-0.3-0.3-0.5-0.7-0.6-1.1c-0.1-0.4-0.2-0.9-0.2-1.4
			c0-0.6,0.1-1.1,0.3-1.6c0.2-0.5,0.5-0.9,0.8-1.2c0.4-0.3,0.8-0.6,1.3-0.8c0.5-0.2,1.1-0.3,1.7-0.3c0.6,0,1.1,0.1,1.7,0.2
			c0.5,0.1,1,0.2,1.4,0.4v6.5c0,1.2-0.3,2-1,2.6c-0.6,0.6-1.5,0.8-2.6,0.8c-0.6,0-1.2-0.1-1.7-0.2c-0.5-0.1-0.9-0.3-1.3-0.6
			L388.4,71.7z M391.9,65.5c-0.1-0.1-0.3-0.1-0.4-0.1c-0.1,0-0.3,0-0.6,0c-0.3,0-0.6,0.1-0.8,0.2c-0.2,0.1-0.4,0.2-0.6,0.4
			c-0.2,0.2-0.3,0.4-0.3,0.6c-0.1,0.2-0.1,0.5-0.1,0.7c0,0.5,0.1,0.9,0.4,1.2c0.2,0.3,0.6,0.5,1.1,0.5c0.4,0,0.8-0.1,1-0.3
			c0.2-0.2,0.4-0.6,0.4-1V65.5z"/>
	</g>
	<line fill="none" stroke="#B21E8E" stroke-miterlimit="10" x1="317.9" y1="3" x2="317.9" y2="80.2"/>
</g>
</svg>
