<?xml version="1.0" encoding="utf-8"?>
<!-- Generator: Adobe Illustrator 19.2.0, SVG Export Plug-In . SVG Version: 6.00 Build 0)  -->
<!DOCTYPE svg PUBLIC "-//W3C//DTD SVG 1.1//EN" "http://www.w3.org/Graphics/SVG/1.1/DTD/svg11.dtd">
<svg version="1.1" id="Layer_1" xmlns="http://www.w3.org/2000/svg" xmlns:xlink="http://www.w3.org/1999/xlink" x="0px" y="0px"
	 viewBox="0 0 37.6 37.6" enable-background="new 0 0 37.6 37.6" xml:space="preserve">
<path fill="#C4C3C4" d="M18.8,0C8.4,0,0,8.4,0,18.8s8.4,18.8,18.8,18.8s18.8-8.4,18.8-18.8S29.2,0,18.8,0z M23.1,26.3
	c0.6,0.6,0.6,1.5,0,2.1c-0.3,0.3-0.7,0.4-1.1,0.4s-0.8-0.1-1.1-0.4l-8.6-8.6c-0.6-0.6-0.6-1.5,0-2.1L21,9.2c0.6-0.6,1.5-0.6,2.1,0
	c0.6,0.6,0.6,1.5,0,2.1l-7.5,7.5L23.1,26.3z"/>
</svg>
