<?xml version="1.0" encoding="utf-8"?>
<!-- Generator: Adobe Illustrator 19.2.0, SVG Export Plug-In . SVG Version: 6.00 Build 0)  -->
<!DOCTYPE svg PUBLIC "-//W3C//DTD SVG 1.1//EN" "http://www.w3.org/Graphics/SVG/1.1/DTD/svg11.dtd">
<svg version="1.1" id="Layer_1" xmlns="http://www.w3.org/2000/svg" xmlns:xlink="http://www.w3.org/1999/xlink" x="0px" y="0px"
	 viewBox="0 0 37.6 37.6" enable-background="new 0 0 37.6 37.6" xml:space="preserve">
<path fill="#C4C3C4" d="M18.8,37.6c10.4,0,18.8-8.4,18.8-18.8S29.2,0,18.8,0S0,8.4,0,18.8S8.4,37.6,18.8,37.6z M14.4,11.3
	c-0.6-0.6-0.6-1.5,0-2.1c0.3-0.3,0.7-0.4,1.1-0.4s0.8,0.1,1.1,0.4l8.6,8.6c0.6,0.6,0.6,1.5,0,2.1l-8.6,8.6C16,29,15,29,14.4,28.4
	c-0.6-0.6-0.6-1.5,0-2.1l7.5-7.5L14.4,11.3z"/>
</svg>
