<?xml version="1.0" encoding="utf-8"?>
<!-- Generator: Adobe Illustrator 19.0.0, SVG Export Plug-In . SVG Version: 6.00 Build 0)  -->
<svg version="1.1" id="Layer_1" xmlns="http://www.w3.org/2000/svg" xmlns:xlink="http://www.w3.org/1999/xlink" x="0px" y="0px"
	 viewBox="311 -133.1 672.8 316.1" enable-background="new 311 -133.1 672.8 316.1" xml:space="preserve">
<g>
	<path fill="#7F2F91" d="M958.4,139.3l-20-17.4H344.8c-18.6,0-33.8-15.2-33.8-33.8V-99.3c0-18.6,15.2-33.8,33.8-33.8H950
		c18.6,0,33.8,15.2,33.8,33.8v227c0,6.1-3.4,11.4-9,14c-2.1,0.9-4.3,1.4-6.4,1.4C964.8,143,961.3,141.8,958.4,139.3z M344.8-112
		c-7,0-12.7,5.7-12.7,12.7V88.1c0,7,5.7,12.7,12.7,12.7h601.5l16.4,14.3V-99.3c0-7-5.7-12.7-12.7-12.7C950-112,344.8-112,344.8-112z
		"/>
</g>
</svg>
