<?xml version="1.0" encoding="utf-8"?>
<!-- Generator: Adobe Illustrator 19.2.0, SVG Export Plug-In . SVG Version: 6.00 Build 0)  -->
<!DOCTYPE svg PUBLIC "-//W3C//DTD SVG 1.1//EN" "http://www.w3.org/Graphics/SVG/1.1/DTD/svg11.dtd">
<svg version="1.1" id="Layer_1" xmlns="http://www.w3.org/2000/svg" xmlns:xlink="http://www.w3.org/1999/xlink" x="0px" y="0px"
	 viewBox="0 0 672.8 316.1" enable-background="new 0 0 672.8 316.1" xml:space="preserve">
<g>
	<path fill="#FFFFFF" d="M647.4,312.4l-20-17.4H33.8C15.2,295,0,279.8,0,261.2L0,33.8C0,15.2,15.2,0,33.8,0L639,0
		c18.6,0,33.8,15.2,33.8,33.8v267c0,6.1-3.4,11.4-9,14c-2.1,0.9-4.3,1.4-6.4,1.4C653.8,316.1,650.3,314.9,647.4,312.4z M33.8,21.1
		c-7,0-12.7,5.7-12.7,12.7v227.4c0,7,5.7,12.7,12.7,12.7h601.5l16.4,14.3V33.8c0-7-5.7-12.7-12.7-12.7H33.8z"/>
</g>
</svg>
