<?xml version="1.0" encoding="utf-8"?>
<!-- Generator: Adobe Illustrator 19.2.0, SVG Export Plug-In . SVG Version: 6.00 Build 0)  -->
<!DOCTYPE svg PUBLIC "-//W3C//DTD SVG 1.1//EN" "http://www.w3.org/Graphics/SVG/1.1/DTD/svg11.dtd">
<svg version="1.1" id="Layer_1" xmlns="http://www.w3.org/2000/svg" xmlns:xlink="http://www.w3.org/1999/xlink" x="0px" y="0px"
	 viewBox="0 0 83.2 83.2" enable-background="new 0 0 83.2 83.2" xml:space="preserve">
<g>
	<g>
		<path fill="#FFFFFF" d="M49.6,83.2H24.1c-1.5,0-2.8-0.8-3.4-2.2c-0.6-1.3-0.4-2.9,0.6-4l4.2-4.8V8.1c0-4.5,3.7-8.1,8.1-8.1h16
			c4.5,0,8.1,3.7,8.1,8.1v66.9C57.7,79.6,54.1,83.2,49.6,83.2z M27.1,78.1h22.5c1.7,0,3.1-1.4,3.1-3.1V8.1c0-1.7-1.4-3.1-3.1-3.1
			h-16c-1.7,0-3.1,1.4-3.1,3.1v66L27.1,78.1z"/>
	</g>
	<g>
		<path fill="#FFFFFF" d="M3.7,61.8c-0.5,0-1-0.1-1.5-0.3C0.8,60.9,0,59.6,0,58.1V32.6c0-4.5,3.7-8.1,8.1-8.1h66.9
			c4.5,0,8.1,3.7,8.1,8.1v16c0,4.5-3.7,8.1-8.1,8.1H10.9l-4.8,4.2C5.4,61.5,4.6,61.8,3.7,61.8z M8.1,29.5c-1.7,0-3.1,1.4-3.1,3.1
			v22.5l4-3.4h66c1.7,0,3.1-1.4,3.1-3.1v-16c0-1.7-1.4-3.1-3.1-3.1H8.1z"/>
	</g>
</g>
</svg>
