<?xml version="1.0" encoding="utf-8"?>
<!-- Generator: Adobe Illustrator 19.2.0, SVG Export Plug-In . SVG Version: 6.00 Build 0)  -->
<!DOCTYPE svg PUBLIC "-//W3C//DTD SVG 1.1//EN" "http://www.w3.org/Graphics/SVG/1.1/DTD/svg11.dtd">
<svg version="1.1" id="Layer_1" xmlns="http://www.w3.org/2000/svg" xmlns:xlink="http://www.w3.org/1999/xlink" x="0px" y="0px"
	 viewBox="0 0 38.3 11.8" enable-background="new 0 0 38.3 11.8" xml:space="preserve">
<g>
	<path fill="#FFFFFF" d="M35.8,0.2h-2.4c-0.7,0-1.3,0.2-1.6,0.9l-4.6,10.5h3.3c0,0,0.5-1.4,0.7-1.7c0.4,0,3.5,0,4,0
		c0.1,0.4,0.4,1.7,0.4,1.7h2.9L35.8,0.2z M31.9,7.6c0.3-0.7,1.2-3.2,1.2-3.2c0,0,0.3-0.7,0.4-1.1l0.2,1c0,0,0.6,2.7,0.7,3.3H31.9z
		 M27.3,7.9c0,2.4-2.1,3.9-5.4,3.9c-1.4,0-2.7-0.3-3.5-0.6l0.4-2.6l0.4,0.2c1,0.4,1.7,0.6,2.9,0.6c0.9,0,1.9-0.4,1.9-1.1
		c0-0.5-0.4-0.9-1.6-1.4c-1.2-0.5-2.7-1.5-2.7-3.1C19.7,1.5,21.9,0,25,0c1.2,0,2.2,0.2,2.8,0.5L27.3,3l-0.3-0.1
		c-0.6-0.2-1.3-0.5-2.3-0.4c-1.2,0-1.8,0.5-1.8,1c0,0.5,0.7,0.9,1.7,1.4C26.5,5.6,27.3,6.6,27.3,7.9L27.3,7.9z M0,0.3l0-0.2h4.8
		C5.5,0.1,6,0.3,6.2,1l1,5C6.2,3.4,3.8,1.2,0,0.3L0,0.3z M14.1,0.2L9.2,11.6l-3.3,0L3.1,2.1c2,1.3,3.7,3.3,4.3,4.7L7.7,8l3-7.8H14.1
		z M15.3,0.2h3.1l-1.9,11.4h-3.1L15.3,0.2z M15.3,0.2"/>
</g>
</svg>
